<svg width="512" height="512" viewBox="0 0 512 512" fill="none" xmlns="http://www.w3.org/2000/svg">
<g clip-path="url(#clip0_963_8913)">
<rect x="0.00012207" width="514.501" height="514" fill="#05164D"/>
<path d="M404.586 386.823C405.571 379.382 409.512 376.406 416.902 376.406C425.769 376.406 428.232 380.871 429.218 386.823H404.586ZM447.937 394.263C447.937 374.918 439.07 362.022 416.902 362.022C393.256 362.022 385.866 377.894 385.866 394.263C385.866 413.608 394.734 426.504 417.394 426.504C435.622 426.504 444.982 417.576 445.967 405.671H428.232C427.247 409.639 424.291 411.624 417.394 411.624C408.527 411.624 404.586 408.151 403.601 398.727H446.952C447.937 397.735 447.937 395.751 447.937 394.263ZM384.881 379.878V362.022C384.388 362.022 382.418 362.022 381.433 362.022C372.073 362.022 367.147 365.99 364.683 370.95V363.51H347.934V424.52H366.161V390.295C366.161 382.359 371.087 379.382 377.492 379.382C379.462 379.382 382.418 379.382 384.881 379.878ZM294.73 394.263C294.73 383.847 299.164 378.39 309.016 378.39C318.869 378.39 323.303 384.343 323.303 394.263C323.303 404.679 318.869 410.135 309.016 410.135C299.164 410.135 294.73 404.679 294.73 394.263ZM276.503 394.263C276.503 413.608 285.863 426.504 309.016 426.504C332.17 426.504 341.53 413.608 341.53 394.263C341.53 374.918 332.17 362.022 309.016 362.022C285.863 362.022 276.503 374.918 276.503 394.263ZM194.727 374.918L216.403 424.52H229.211L250.886 374.918V424.52H270.592V340.197H247.438L223.299 395.751L198.668 340.197H175.514V425.016H195.22V374.918H194.727ZM100.635 411.624C94.2308 411.624 89.7971 408.151 89.7971 402.695C89.7971 398.231 91.275 394.759 98.6645 390.791L114.429 407.655C110.488 410.135 106.054 411.624 100.635 411.624ZM106.054 353.094C111.473 353.094 115.906 356.566 115.906 361.03C115.906 365.494 112.951 368.47 106.546 371.446L103.591 372.934L101.62 370.95C98.6645 367.974 96.2013 364.502 96.2013 360.534C96.2013 356.07 99.6497 353.094 106.054 353.094ZM153.839 425.016L137.582 408.647C143.001 401.703 146.942 393.767 148.42 385.335H130.193C129.207 388.807 127.729 392.775 125.266 396.247L114.429 383.847H114.921C125.759 378.886 132.656 371.942 132.656 362.022C132.656 348.629 124.281 338.709 106.546 338.709C87.8266 338.709 79.452 349.126 79.452 361.526C79.452 368.47 83.393 373.926 88.3193 379.878C77.9741 385.335 71.5699 392.775 71.5699 402.695C71.5699 418.072 80.9299 427 100.142 427C109.502 427 117.877 424.024 125.266 419.56L130.193 425.016H153.839ZM323.851 304.807C343.556 304.807 351.93 297.367 351.93 284.47C351.93 271.574 344.048 267.11 328.777 264.629L322.373 263.637C316.954 263.141 315.969 261.653 315.969 258.677C315.969 256.197 318.432 253.717 324.343 253.717C330.255 253.717 332.225 255.701 333.211 259.173H350.945C349.96 245.781 341.093 239.333 324.343 239.333C305.623 239.333 297.741 247.765 297.741 259.669C297.741 271.574 305.623 277.03 318.924 279.014L325.329 280.006C331.733 280.998 334.196 282.486 334.196 285.462C334.196 288.934 331.24 290.422 324.343 290.422C317.446 290.422 313.998 288.438 313.998 283.974H296.263C295.278 296.374 302.668 304.807 323.851 304.807ZM248.479 265.125C249.464 257.685 253.405 254.709 260.794 254.709C269.662 254.709 272.125 259.173 273.11 265.125H248.479ZM291.83 272.566C291.83 253.221 282.963 240.325 260.794 240.325C237.148 240.325 229.759 256.197 229.759 272.566C229.759 291.91 238.626 304.807 261.287 304.807C279.514 304.807 288.874 295.878 289.859 283.974H272.125C271.139 287.942 268.184 289.926 261.287 289.926C252.42 289.926 248.479 286.454 247.493 277.03H290.845C291.83 276.038 291.83 274.054 291.83 272.566ZM213.009 303.319H223.847V218.5H205.62V295.878C206.113 300.839 208.576 303.319 213.009 303.319ZM197.738 241.813H179.511V302.823H197.738V241.813ZM197.738 218.5H179.511V234.373H197.738V218.5ZM95.2715 253.221L116.947 302.823H129.755L151.431 253.221V302.823H171.136V218.5H147.983L123.351 273.558L99.2125 218.5H76.059V303.319H95.7641V253.221H95.2715Z" fill="white"/>
<path d="M298.632 183.668H298.62C298.64 183.609 298.664 183.552 298.683 183.494C298.769 183.238 298.868 182.988 298.958 182.734C299.222 181.987 299.501 181.247 299.803 180.516C299.941 180.181 300.085 179.851 300.231 179.52C300.534 178.832 300.856 178.153 301.193 177.48C301.335 177.197 301.47 176.912 301.618 176.632C302.105 175.709 302.619 174.798 303.171 173.907C303.261 173.761 303.361 173.622 303.453 173.477C303.932 172.723 304.434 171.981 304.958 171.253C305.157 170.977 305.363 170.706 305.568 170.434C306.032 169.819 306.513 169.214 307.01 168.619C307.22 168.369 307.425 168.116 307.64 167.87C308.345 167.062 309.071 166.268 309.838 165.503C309.84 165.5 309.842 165.497 309.845 165.495C327.869 147.5 357.197 147.503 375.223 165.495L380.808 171.073L385.783 166.107C403.344 148.576 433.004 147.607 450.975 164.72C469.792 182.637 470.057 212.503 451.771 230.758L382.321 300.086V300.076L381.376 301.019C381.165 301.229 380.805 301.08 380.805 300.783V286.616C380.805 286.528 380.84 286.443 380.903 286.381L389.35 277.948C389.356 277.942 389.365 277.943 389.372 277.937L444.202 223.203C458.053 209.376 458.053 186.877 444.202 173.051C437.275 166.137 428.18 162.682 419.083 162.682C409.987 162.682 400.889 166.138 393.964 173.051L380.808 186.186L367.654 173.051C353.803 159.224 331.265 159.224 317.414 173.051C316.701 173.762 316.034 174.504 315.391 175.264C315.216 175.47 315.051 175.683 314.881 175.893C314.4 176.489 313.938 177.096 313.499 177.717C313.356 177.92 313.212 178.122 313.073 178.327C312.535 179.125 312.021 179.936 311.552 180.771C311.545 180.783 311.537 180.794 311.531 180.807C311.017 181.723 310.546 182.662 310.117 183.619C309.16 185.753 308.406 187.976 307.889 190.27C307.855 190.42 307.723 190.527 307.569 190.527H297.34C297.131 190.527 296.969 190.336 297.005 190.13C297.388 187.929 297.94 185.773 298.632 183.668Z" fill="white"/>
</g>
<defs>
<clipPath id="clip0_963_8913">
<rect width="512" height="512" rx="100" fill="white"/>
</clipPath>
</defs>
</svg>
