<?xml version="1.0" encoding="utf-8"?>
<svg viewBox="0 0 500 500" width="500" height="500" style="shape-rendering: geometricprecision;" xmlns="http://www.w3.org/2000/svg">
  <g transform="matrix(1, 0, 0, 1, -96.665749, 44.207066)">
    <path style="opacity:0.954" fill="#fec106" d="M 412.5,4.5 C 432.188,2.00848 443.355,10.6752 446,30.5C 448.394,61.3214 437.894,86.8214 414.5,107C 404.316,115.929 392.983,123.095 380.5,128.5C 378.854,127.221 377.687,125.555 377,123.5C 366.728,96.3561 366.061,69.0227 375,41.5C 382.141,23.5239 394.641,11.1905 412.5,4.5 Z"/>
  </g>
  <g transform="matrix(1, 0, 0, 1, -96.665749, 44.207066)">
    <path style="opacity:0.972" fill="#fec106" d="M 214.5,31.5 C 256.687,31.6102 291.854,47.2768 320,78.5C 336.016,96.8611 348.183,117.528 356.5,140.5C 337.887,149.205 318.554,156.039 298.5,161C 266.667,168.884 235.667,166.551 205.5,154C 175.879,139.206 158.879,115.373 154.5,82.5C 157.953,57.5363 171.953,41.703 196.5,35C 202.581,33.5026 208.581,32.3359 214.5,31.5 Z"/>
  </g>
  <g transform="matrix(1, 0, 0, 1, -96.665749, 44.207066)">
    <path style="opacity:0.964" fill="#fec106" d="M 403.5,150.5 C 404.5,150.5 405.5,150.5 406.5,150.5C 403.556,158.609 401.389,166.943 400,175.5C 396.854,236.728 414.854,290.728 454,337.5C 460.198,344.032 466.698,350.199 473.5,356C 479.88,360.254 486.547,363.754 493.5,366.5C 463.974,390.53 431.64,395.03 396.5,380C 380.313,369.479 367.146,355.979 357,339.5C 331.503,298.364 324.503,254.364 336,207.5C 350.165,178.518 372.665,159.518 403.5,150.5 Z"/>
  </g>
  <g transform="matrix(1, 0, 0, 1, -96.665749, 44.207066)">
    <path style="opacity:0.968" fill="#fec106" d="M 459.5,150.5 C 475.374,152.937 489.374,159.437 501.5,170C 535.934,202.967 549.434,243.134 542,290.5C 540.203,301.023 536.87,311.023 532,320.5C 519.382,333.198 505.549,334.698 490.5,325C 447.607,283.673 428.773,233.173 434,173.5C 438.004,160.655 446.504,152.988 459.5,150.5 Z"/>
  </g>
  <g transform="matrix(1, 0, 0, 1, -96.665749, 44.207066)">
    <path style="opacity:0.931" fill="#fec106" d="M 298.5,248.5 C 299.5,248.5 300.5,248.5 301.5,248.5C 302.61,301.019 320.61,346.686 355.5,385.5C 354.5,385.833 353.5,386.167 352.5,386.5C 320.737,380.395 290.07,370.895 260.5,358C 256.388,353.996 254.888,349.163 256,343.5C 267.468,310.569 281.635,278.902 298.5,248.5 Z"/>
  </g>
</svg>