<?xml version="1.0" encoding="UTF-8"?>
<!DOCTYPE svg PUBLIC "-//W3C//DTD SVG 1.1//EN" "http://www.w3.org/Graphics/SVG/1.1/DTD/svg11.dtd">
<svg xmlns="http://www.w3.org/2000/svg" version="1.1" width="200px" height="200px" style="shape-rendering:geometricPrecision; text-rendering:geometricPrecision; image-rendering:optimizeQuality; fill-rule:evenodd; clip-rule:evenodd" xmlns:xlink="http://www.w3.org/1999/xlink">
<g><path style="opacity:1" fill="#2c2c4e" d="M -0.5,-0.5 C 66.1667,-0.5 132.833,-0.5 199.5,-0.5C 199.5,66.1667 199.5,132.833 199.5,199.5C 132.833,199.5 66.1667,199.5 -0.5,199.5C -0.5,132.833 -0.5,66.1667 -0.5,-0.5 Z"/></g>
<g><path style="opacity:1" fill="#fcfcfc" d="M 143.5,73.5 C 133.833,73.5 124.167,73.5 114.5,73.5C 114.5,100.167 114.5,126.833 114.5,153.5C 105.833,154.833 97.1667,154.833 88.5,153.5C 87.1639,151.99 85.9973,150.323 85,148.5C 84.5,123.502 84.3334,98.5022 84.5,73.5C 74.4778,73.8319 64.4778,73.4985 54.5,72.5C 53.5345,65.224 53.2012,57.8907 53.5,50.5C 54.2891,50.2172 54.9558,49.7172 55.5,49C 83.1667,48.3333 110.833,48.3333 138.5,49C 141.667,50.1667 143.833,52.3333 145,55.5C 145.667,60.8333 145.667,66.1667 145,71.5C 144.283,72.0442 143.783,72.7109 143.5,73.5 Z"/></g>
</svg>
