<svg xmlns="http://www.w3.org/2000/svg" height="800" width="1200" viewBox="-19.49976 -15 168.99792 90"><linearGradient gradientTransform="translate(-.0002)" y2="0" x2="64.9993" y1="60" x1="64.9993" gradientUnits="userSpaceOnUse" id="a"><stop stop-color="#161998" offset="0"/><stop stop-color="#441e93" offset=".129"/><stop stop-color="#6e228f" offset=".266"/><stop stop-color="#90258c" offset=".407"/><stop stop-color="#ab2889" offset=".549"/><stop stop-color="#be2a87" offset=".694"/><stop stop-color="#c92b86" offset=".842"/><stop stop-color="#cd2b86" offset="1"/></linearGradient><path d="M95.5298 21.298h12.558l-14.872 19.449h-12.562zm-.944-1.9L78.7768 40.08c-.378.493-.44 1.116-.163 1.667.267.545.833.898 1.432.898h14.113l15.937-20.839a1.526 1.526 0 00.151-1.585c-.255-.51-.774-.823-1.359-.823zm-45.149-10.11a.468.468 0 01.401-.227h8.236l1.183-6.798c.04-.211.225-.36.445-.36l7.708-.006c.141 0 .256.043.337.134.084.105.126.245.106.369l-.767 4.399 36.237.026c.196 0 .336.119.405.232.042.084.1.255-.019.417l-3.272 4.272 26.856-.007c.156 0 .268.098.312.186.043.063.078.195-.004.316l-22.32 29.215c-.254.318-.243 1.126-.066 1.472.184.348.821.844 1.22.844l15.7.016c.182 0 .289.094.338.15a.44.44 0 01.102.356l-1.194 6.827c-.038.207-.225.357-.446.357h-59.731l-.982-.006c.073.338.102.689.102 1.047 0 3.071-2.489 5.561-5.565 5.561-3.074 0-5.565-2.49-5.565-5.561 0-3.072 2.491-5.559 5.565-5.559 2.099 0 3.929 1.163 4.881 2.88l24.344-31.907c.391-.824.196-1.119-.015-1.604-.157-.366-.744-.742-1.384-.736h-17.04l-4.354 24.856c-.042.195-.229.332-.438.332h-7.713c-.179 0-.289-.096-.341-.153-.047-.056-.132-.179-.099-.356l4.729-26.98-19.237 37.701c-.173.303-.493.498-.854.498l-6.552.032c-.234 0-.426-.167-.447-.367l-1.807-27.388L14.2188 51c-.17.3-.498.494-.85.494l-6.646-.004c-.228 0-.422-.168-.441-.384L1.9468 9.531c-.01-.13.035-.258.113-.346.081-.081.197-.125.337-.125h8.933c.244 0 .449.198.449.459l1.34 27.123 13.138-27.348c.071-.142.23-.234.397-.234l8.144-.035c.225 0 .426.17.44.37l1.324 27.333zM59.3228 0c-.92 0-1.702.657-1.867 1.569l-.981 5.59h-6.927c-.707 0-1.339.381-1.699 1.041l-9.751 20.793-.968-20.102c-.083-.973-.907-1.732-1.892-1.732h-8.866c-.708 0-1.361.394-1.699 1.045l-10.026 20.872-.99-20.023c0-1.046-.852-1.893-1.896-1.893h-9.862c-.539 0-1.039.21-1.401.591-.35.384-.53.919-.493 1.478l4.421 42.461c.106.961.918 1.686 1.888 1.686l7.331.003c.9 0 1.719-.491 2.143-1.289l11.196-21.444 1.38 21.044c.111.961.92 1.686 1.884 1.686l7.277.003c.896 0 1.723-.497 2.146-1.299l13.606-26.67-2.635 15.041c-.1.554.055 1.118.412 1.555.359.427.891.675 1.452.675h8.624c.896 0 1.658-.624 1.858-1.522l4.149-23.671h14.815l-22.388 29.295c-1.34-1.12-3.035-1.731-4.789-1.731-4.117 0-7.478 3.354-7.478 7.473 0 4.122 3.361 7.475 7.478 7.475 3.783 0 7.003-2.889 7.438-6.622l59.105-.003c.931 0 1.713-.661 1.865-1.571l1.353-7.693c.094-.553-.063-1.12-.42-1.545-.356-.425-.885-.669-1.45-.669l-15.328-.014 22.348-29.237c.38-.567.414-1.251.1-1.839-.307-.595-.922-.968-1.594-.968h-23.915l1.516-1.979c.398-.594.437-1.317.102-1.949-.334-.62-.975-1.014-1.671-1.014h-34.882l.478-2.682c.09-.549-.076-1.131-.441-1.561-.355-.422-.865-.654-1.436-.654z" fill="url(#a)"/></svg>