<?xml version="1.0" ?><!DOCTYPE svg  PUBLIC '-//W3C//DTD SVG 1.1//EN'  'http://www.w3.org/Graphics/SVG/1.1/DTD/svg11.dtd'><svg height="512px" style="enable-background:new 0 0 512 512;" version="1.1" viewBox="0 0 512 512" width="512px" xml:space="preserve" xmlns="http://www.w3.org/2000/svg" xmlns:xlink="http://www.w3.org/1999/xlink"><g id="_x33_18_x2C__hill_x2C__landscape_x2C__nature_x2C__mountain_x2C__tree"><g><path d="M477.119,272.065l-2.798-4.675c-8.92-14.867-13.399-22.32-19.288-28.092    c-5.907-5.791-13.537-10.172-28.873-18.975c-2.328-1.33-4.813-2.661-7.082-4.069c-1.878-1.076-3.247-1.956-4.303-2.622    c-1.429-0.919-2.113-1.35-2.367-1.35c-0.294,0-1.037,0.392-2.466,1.115c-1.447,0.744-3.442,1.78-6.494,3.11l-11.562,5.087    l-10.094,4.518c0.177,2.309-0.352,5.126-1.213,9.742l-0.41,2.152l-0.939,4.871l-0.078,0.332    c-0.724,3.952-1.525,7.707-2.348,11.443l-0.078,0.314l-0.02,0.078c-0.743,3.462-1.447,6.65-2.094,9.604l-1.525,6.983l-0.078,0.353    c-0.606,2.993-1.174,6.083-1.682,9.331c-2.974,18.682,0.254,34.625,4.303,52.133c0.705,2.856,1.486,5.908,2.348,9.175    c0.92,1.37,2.836,0.978,5.536,0.431c1.507-0.313,3.169-0.666,4.93-0.861c20.345-2.504,34.527-3.384,48.709-3.13l3.228,0.079    l27.876-21.988c-1.701-4.422-6.591-16.589-8.92-17.039c-4.969-0.997-11.268-22.965-12.539-27.582    c-0.841-0.411-3.345-1.369-10.485-2.738c-12.051-2.328-17.234-24.786-17.234-24.844c-0.313-1.291,0.489-2.583,1.78-2.896    c1.291-0.293,2.583,0.509,2.895,1.8c0,0.04,4.5,19.504,13.459,21.226c11.249,2.172,13.381,4.283,13.381,4.303    c0.333,0.334,0.548,0.744,0.646,1.194c0.489,1.761,6.592,24.335,9.037,24.823c5.225,1.037,13.088,21.715,13.107,21.773    c0.352,0.979,0,2.055-0.782,2.66l-24.884,19.621c10.271,0.566,21.205,1.662,35.056,3.13c0.078-8.001,0.372-15.024,0.842-21.987    c0.509-7.649,1.231-15.376,2.112-24.336c0.979-10.172-0.704-12.598-4.754-18.467c-1.115-1.604-2.406-3.463-3.814-5.692    L477.119,272.065z M339.755,148.14c-6.417,0-12.285,2.405-16.727,6.377c-4.265,3.795-7.237,9.058-8.138,14.965    c5.576,7.825,11.033,12.285,16.941,15.963l0.176,0.117l0.469,0.274l0.333,0.215l0.803,0.489l0.175,0.098l0.236,0.137l0.41,0.235    h0.02l0.391,0.234l0.273,0.156l0.139,0.078l0.41,0.234l0.117,0.079l0.293,0.157l0.392,0.215l0.039,0.02l0.411,0.234l0.234,0.117    l0.195,0.117l0.411,0.234l0.079,0.039l0.352,0.196l0.332,0.176l0.529,0.294l0.155,0.098l0.274,0.137l0.43,0.235l0,0l0.314,0.176    l0.097,0.059l0.06,0.02l0.137,0.098l0.156,0.079l0.078,0.039l0.078,0.039l0.156,0.098l0.157,0.078l0.02,0.02l0.137,0.078    l0.293,0.156h0.021l0.156,0.098l0.156,0.078l0.098,0.059l0.215,0.118l0.177,0.098l0.019,0.02l0.138,0.059l0.157,0.098l0.137,0.078    h0.02l0.156,0.098l0.156,0.079l0.098,0.059l0.059,0.039l0.177,0.078l0.155,0.098l0.06,0.02l0.099,0.078L344,192.33l0.176,0.098    l0,0l0.156,0.078l0.156,0.099l0.117,0.078l0.039,0.02l0.333,0.176l0.078,0.039l0.078,0.06l0.665,0.371l0.137,0.078l0.039,0.02    l0.156,0.098l0.158,0.098l0.097,0.059l0.255,0.137l0.156,0.099l0.039,0.019l0.137,0.079l0.998,0.606l0.176,0.098l0.508,0.293    v0.021l1.742,1.056c4.166-1.937,7.727-5.008,10.27-8.803c2.681-3.99,4.246-8.803,4.246-14.006c0-6.945-2.818-13.225-7.356-17.782    C352.998,150.956,346.699,148.14,339.755,148.14z M199.24,332.023c0.059-0.234,0.156-0.431,0.273-0.646    c3.189-5.146,5.165-11.62,6.143-18.897c1.096-8.138,0.959-17.293-0.078-26.722l-0.04-0.411l0.021-0.743l-0.353-2.699l-0.019-0.157    l-0.176-1.213v-0.059l-0.274-1.877l-0.02-0.099l-0.391-2.425l-0.059-0.313l-0.059-0.313l-0.059-0.371l-0.371-2.055l-0.02-0.098    l-0.118-0.586v-0.039l-0.117-0.646l0,0l-0.137-0.626v-0.059l-0.117-0.567l-0.02-0.098l-0.098-0.528l-0.039-0.156l-0.099-0.47    l-0.039-0.215l-0.098-0.411l-0.118-0.606l-0.019-0.039l-0.137-0.625l-0.411-1.879l-0.118-0.488l-0.02-0.138l-0.157-0.626    l-0.039-0.234l-0.099-0.392c-1.447-6.024-3.129-11.952-4.988-17.586c-4.167-12.657-9.175-23.808-13.948-31.397l-0.254,0.371    l-0.176,0.294l-0.078,0.098l-0.235,0.392l-0.137,0.215l-0.117,0.195l-0.234,0.412l-0.078,0.117l-0.176,0.273l-0.254,0.43v0.02    l-0.45,0.764l-0.039,0.059l-0.392,0.704l-0.098,0.156l-0.253,0.431l-0.098,0.195l-0.137,0.255l-0.254,0.449l-0.039,0.099    l-0.45,0.802l0,0l-0.235,0.47l-0.196,0.352l-0.802,1.526l-0.078,0.156l-0.156,0.333l-0.705,1.408l-0.019,0.059l-0.412,0.842    l-0.078,0.156l-0.234,0.508l-0.118,0.215l-0.372,0.803l-0.059,0.117l-0.175,0.41l-0.235,0.51h-0.019l-0.411,0.938l-0.059,0.118    l-0.782,1.779l-0.157,0.372l-0.234,0.528l-0.019,0.078l-0.216,0.469l-0.196,0.489l-0.039,0.079l-0.215,0.547l-0.157,0.372    l-0.078,0.177l-0.235,0.566l-0.097,0.254l-0.137,0.313l-0.215,0.567l-0.059,0.117l-0.391,1.018l0,0l-0.235,0.566l-0.175,0.451    l-0.04,0.137l-0.215,0.566l-0.137,0.333l-0.098,0.255l-0.215,0.586l-0.078,0.195l-0.137,0.393l-0.216,0.586l-0.02,0.078    l-0.196,0.528l-0.195,0.528l-0.02,0.059l-0.215,0.607l-0.137,0.391l-0.079,0.195l-0.196,0.607l-0.097,0.273l-0.118,0.332    l-0.254,0.744l-0.156,0.469l-0.215,0.606v0.021l-0.705,2.17l-0.059,0.196l-0.255,0.802l-0.039,0.117v0.039    c-0.802,2.563-1.565,5.185-2.27,7.825l-0.059,0.196c-1.897,7.159-3.423,14.534-4.42,21.83c-0.607,4.5-0.999,8.979-1.155,13.361    v0.157l-0.04,2.19l-0.019,0.098v0.803v0.195v0.626v0.47l0.019,1.076v0.059l0.021,0.781v0.235l0.019,0.548l0.02,0.528l0.02,0.234    l0.02,0.763v0.059l0.039,0.705l0.058,0.763l0.04,0.646l0.019,0.098l0.059,0.764v0.195l0.059,0.548l0.04,0.488l0.039,0.255    l0.078,0.743v0.02l0.079,0.704l0.039,0.313l0.059,0.432l0.078,0.586l0.021,0.137l0.116,0.725l0.099,0.724l0.078,0.411l0.039,0.293    l0.137,0.685v0.02l0.137,0.704l0.039,0.254l0.098,0.451l0,0l0.137,0.684l0.156,0.686l0.02,0.117l0.137,0.566l0.098,0.373    l0.078,0.313l0.02,0.098l0.156,0.567l0.176,0.685l0.059,0.195l0.137,0.45l0.019,0.079l0.176,0.586l0.215,0.646v0.06l0.195,0.586    l0.215,0.587l0.019,0.059l0.196,0.548l0.02,0.078l0.234,0.626l0.059,0.157l0.196,0.469l0.156,0.392l0.079,0.215l0.273,0.606v0.02    l0.254,0.587l0.117,0.255l0.04,0.078l0.293,0.587l0.059,0.137l0.059,0.117l0.294,0.587l0.058,0.117l0.235,0.45l0.176,0.333    l0.117,0.234l0.313,0.547l0,0l0.333,0.568l0.118,0.195c2.289,3.775,5.184,7.023,8.764,9.586h0.02l0.098,0.078l0.918,0.625    l0.118,0.078l0.254,0.157l0.02,0.02l0.176,0.117l0.02,0.021h0.02l0.019,0.019c1.448,0.9,2.993,1.683,4.617,2.367v-23.024    l-11.053-12.5c-0.919-1.037-0.821-2.621,0.216-3.521c1.017-0.92,2.601-0.821,3.521,0.215l7.317,8.275v-37.892l-8.92-10.251    c-0.9-1.057-0.783-2.641,0.254-3.541c1.036-0.899,2.621-0.802,3.521,0.255l5.145,5.907v-8.998c0-1.389,1.134-2.504,2.504-2.504    c1.389,0,2.504,1.115,2.504,2.504v41.393l7.707-9.35c0.881-1.057,2.465-1.213,3.521-0.333c1.057,0.86,1.213,2.445,0.352,3.501    l-11.581,14.026v35.622c2.347-0.82,4.44-1.916,6.318-3.266c2.622-1.879,4.832-4.246,6.651-7.004l0.098-0.176L199.24,332.023z     M133.589,163.73l-9.252-10.27l-1.076,0.802c-34.155,25.528-43.115,32.238-69.505,69.132c-7.57,17.371-6.925,31.945-6.279,46.832    c0.959,21.225,1.917,43.096-19.327,74.57l0.567-0.078c1.155-0.137,2.504-0.313,4.108-0.391c11.973-0.686,23.084-1.702,34.234-2.72    l11.208-1.017c11.092-16.941,17.625-46.226,23.494-72.439c4.558-20.441,8.706-39.045,14.398-49.041    c5.418-9.508,5.791-18.291,6.123-26.37C122.732,182.08,123.143,172.572,133.589,163.73z M146.774,234.33    c2.504,0,4.753,1.018,6.397,2.66c1.623,1.624,2.641,3.893,2.641,6.396s-1.018,4.754-2.641,6.397    c-1.644,1.624-3.893,2.642-6.397,2.642c-2.504,0-4.774-1.018-6.397-2.642c-1.644-1.644-2.66-3.894-2.66-6.397    s1.017-4.753,2.66-6.396C142,235.348,144.27,234.33,146.774,234.33z M122.791,299.59c1.917,0,3.639,0.782,4.91,2.034l0.059,0.058    c1.232,1.252,1.976,2.975,1.976,4.852c0,1.918-0.764,3.658-2.035,4.91l-0.059,0.06c-1.252,1.231-2.954,1.995-4.851,1.995    c-1.897,0-3.639-0.783-4.89-2.034l-0.059-0.06c-1.232-1.271-1.996-2.973-1.996-4.871c0-1.896,0.783-3.638,2.035-4.891l0.059-0.059    C119.191,300.352,120.913,299.59,122.791,299.59z M266.71,307.102c0.312-2.133,0.977-4.147,1.976-5.947    c0.978-1.8,2.269-3.385,3.872-4.695c1.585-1.291,3.404-2.229,5.341-2.836c1.976-0.587,4.069-0.842,6.221-0.725    c1.33,0.059,2.348,1.174,2.289,2.504l-0.02,0.235c-0.332,2.132-0.997,4.147-1.976,5.966c-0.979,1.781-2.27,3.365-3.874,4.676    c-1.584,1.311-3.403,2.25-5.34,2.837c-1.977,0.606-4.089,0.841-6.24,0.743c-1.311-0.078-2.328-1.193-2.27-2.504L266.71,307.102z     M376.844,225.527l-0.039-0.137c-0.488-1.448-2.073-2.915-5.066-5.713l-3.287-3.07c-7.335-7.238-13.811-12.09-19.639-15.826    l-0.118-0.059l-0.353-0.234h-0.02l-1.291-0.822l-0.059-0.02l-0.117-0.078l-0.177-0.117l-0.155-0.078l-0.039-0.039l-0.354-0.215    l-0.059-0.021l-0.116-0.078l-0.196-0.118l-0.117-0.077l-0.059-0.039l-0.176-0.099l-0.176-0.117h-0.04l-0.155-0.098l-0.177-0.098    l-0.099-0.078l-0.078-0.039l-0.176-0.098l-0.176-0.117h-0.02l-0.156-0.099l-0.176-0.098l-0.099-0.058l-0.097-0.06l-0.178-0.098    l-0.155-0.099h-0.021l-0.176-0.098l-0.176-0.098l-0.059-0.039l-0.118-0.078l-0.175-0.098l-0.137-0.078l-0.04-0.02l-0.177-0.098    l-0.175-0.098l-0.04-0.02l-0.137-0.078l-0.176-0.098l-0.117-0.06l-0.039-0.039l-0.177-0.098l-0.175-0.098l-0.021-0.021    l-0.155-0.078l-0.177-0.098l-0.098-0.059l-0.078-0.039l-0.156-0.098l-0.176-0.098l-0.176-0.078l-0.177-0.098l-0.06-0.039    l-0.116-0.059l-0.157-0.098l-0.156-0.079l-0.02-0.019l-0.176-0.079l-0.156-0.099l-0.059-0.038l-0.117-0.06l-0.177-0.098    l-0.118-0.059l-0.038-0.039l-0.177-0.078l-0.156-0.098l-0.039-0.02l-0.646-0.352l-0.156-0.078v-0.02l-0.47-0.255l-0.273-0.138    l-0.195-0.116l-0.45-0.235l-0.078-0.059l-0.392-0.195l-0.352-0.215l-0.099-0.039l-0.45-0.255l-0.176-0.099l-0.273-0.156    l-0.449-0.234v-0.02l-0.451-0.254l-0.254-0.137l-0.195-0.118l-0.451-0.254l-0.059-0.039l-0.391-0.216l-0.313-0.176l-0.117-0.078    l-0.432-0.254l-0.156-0.078l-0.293-0.177l-0.43-0.273l-0.431-0.255c-12.266-7.434-22.614-17.391-35.329-49.961    c-0.744,0.586-1.722,1.33-3.014,2.191l-12.52,8.371c-1.095,0.725-2.582,0.432-3.325-0.684l-0.196-0.353    c-11.775-26.897-24.159-37.168-45.951-55.224l-3.325-2.758l-7.708,7.179c-21.088,19.563-36.835,34.194-56.437,59.019    c-2.523,3.189-4.93,6.084-7.316,8.803c-2.406,2.739-4.968,5.518-7.746,8.393c-0.919,0.959-2.445,0.979-3.385,0.059l-6.924-7.688    c-8.96,7.609-9.332,16.119-9.723,25.646c-0.371,8.626-0.763,18.035-6.749,28.541c-5.34,9.389-9.429,27.641-13.908,47.691    c-5.595,25.117-11.815,53.014-22.204,70.913l5.948-0.47c15.121-1.135,28.756-0.371,42.293,0.371    c10.036,0.568,20.031,1.115,30.418,0.881c2.055-0.039,4.05-0.156,5.986-0.313c-10.094-9.175-14.358-23.689-14.789-40.044    c-0.059-1.917-0.039-3.873,0-5.829l0.02-0.156l0.02-0.686v-0.43l0.059-1.096v-0.177l0.039-0.841v-0.098l0.059-0.763l0.02-0.353    l0.02-0.508l0.059-0.842l0.078-0.861v-0.039l0.059-0.821c0.215-2.347,0.469-4.714,0.783-7.081    c0.547-3.972,1.231-7.981,2.054-11.973l0.019-0.059c0.255-1.174,0.509-2.328,0.763-3.482v-0.039l0.196-0.82l0.079-0.354    l0.137-0.508l0.195-0.861l0.215-0.86l0.646-2.563l0.234-0.86l0.216-0.842l0.156-0.586l0.078-0.274l0.235-0.841l0.02-0.039    l0.234-0.803l0.098-0.371l0.137-0.471l0.196-0.684l0.059-0.156l0.234-0.842l0.059-0.156l0.333-1.135l0.118-0.371l0.235-0.783    l0.019-0.039l0.254-0.822l0.098-0.273l0.176-0.548l0.528-1.644l0.019-0.059l0.392-1.114l0.078-0.235l0.686-1.976l0.039-0.117    l0.744-2.054v-0.039l0.391-1.057l0.117-0.313l1.018-2.681l0.078-0.195l0.724-1.8l0.118-0.273l0.684-1.664l0.156-0.371l0.118-0.273    l0.254-0.646l0.04-0.098l0.234-0.527l0.196-0.47l0.078-0.157c0.372-0.84,0.744-1.662,1.115-2.484l0.118-0.273l0.156-0.332    l0.274-0.607v-0.02l0.274-0.566l0.176-0.372l0.118-0.235l0.273-0.586l0.059-0.098l0.235-0.489l0.196-0.431l0.078-0.137    l0.293-0.587l0.078-0.177l0.196-0.391l0.254-0.488l0.04-0.06l0.273-0.567l0.137-0.254l0.156-0.293l0.294-0.549v-0.02l0.274-0.527    l0.176-0.333l0.117-0.196l0.294-0.527l0.039-0.098l0.235-0.431l0.235-0.392l0.058-0.137l0.294-0.508l0.097-0.177l0.196-0.333    l0.254-0.449l0.02-0.039l0.293-0.509l0.137-0.235l0.156-0.254l0.294-0.488v-0.02l0.273-0.451l0.176-0.293l0.117-0.176l0.294-0.47    l0.059-0.078l0.039-0.059l0.04-0.059l0.039-0.078l0.039-0.06l0.039-0.059l0.039-0.059l0,0l0.04-0.078l0.039-0.059l0.04-0.059    l0.04-0.059l0.039-0.059l0.04-0.059l0.039-0.059l0.02-0.02l0.02-0.059l0.04-0.059l0.039-0.06l0.04-0.058l0.039-0.059l0.04-0.06    l0.039-0.059l0.02-0.039l0.02-0.021l0.039-0.077l0.039-0.06l0.04-0.059l0.04-0.059l0.039-0.059l0.04-0.059l0.039-0.039v-0.02    l0.059-0.059l0.039-0.059l0.039-0.059l0.04-0.059l0.04-0.059l0.039-0.059l0.04-0.059l0,0l0.039-0.059l0.04-0.06l0.04-0.058    l0.039-0.06l0.04-0.059l0.039-0.059l0.04-0.059v-0.02l0.04-0.039l0.039-0.06l0.04-0.059l0.039-0.059l0.039-0.059l0.039-0.059    l0.04-0.059l0.02-0.02l0.02-0.039l0.039-0.059l0.04-0.059l0.039-0.039l0.04-0.059l0.04-0.059l0.039-0.059l0.04-0.039v-0.02    l0.039-0.059l0.04-0.059l0.04-0.039l0.039-0.06l0.04-0.059l0.039-0.059l0.039-0.059l0,0l0.04-0.04l0,0l0.039-0.058l0,0l0.04-0.04    l0,0l0.039-0.039v-0.02l0.04-0.039l0,0l0.04-0.039l0,0l0.039-0.039l0,0l0.059-0.039l0,0l0.04-0.039v-0.02l0.039-0.02l0,0    l0.04-0.039h0.02l0.04-0.039l0,0l0.039-0.039l0,0l0.059-0.039l0,0l0.04-0.02l0,0l0.059-0.039l0,0l0.039-0.02v-0.02l0.059-0.02l0,0    l0.04-0.02h0.019l0.04-0.039l0,0l0.058-0.02l0,0l0.039-0.02h0.02l0.04-0.02l0,0l0.059-0.02l0,0l0.059-0.02l0,0l0.059-0.02l0,0    l0.039-0.021l0,0l0.059-0.019l0,0l0.059-0.02l0,0h0.059l0,0l0.059-0.02l0,0h0.059v-0.02h0.059l0,0h0.058l0,0l0.04-0.021h0.019    h0.04l0,0h0.059l0,0h0.059c0.508-0.019,1.017,0.098,1.448,0.431c0.234,0.156,0.411,0.352,0.567,0.567    c0.881,1.232,1.761,2.582,2.66,4.05l0.138,0.234l0.137,0.215l0.802,1.369l0.274,0.471l0,0l0.274,0.469l0.137,0.254l0.118,0.235    l0.273,0.47v0.02l0.274,0.488l0.137,0.254l0.137,0.235l0.254,0.509l0.02,0.02l0.253,0.489l0.137,0.273l0.137,0.255l0.254,0.508    l0.02,0.02l0.254,0.509l0.157,0.294l0.118,0.234l0.274,0.548v0.02l0.254,0.528l0.156,0.293l0.646,1.369l0.156,0.313    c2.856,6.123,5.634,13.126,8.099,20.638c1.115,3.365,2.171,6.828,3.149,10.368l0.118,0.431l0.117,0.43v0.039l0.568,2.094    l0.02,0.117l0.078,0.313l0.118,0.431l0.098,0.352l0.02,0.078l0.097,0.431l0.118,0.431l0.039,0.176l0.059,0.254l0.117,0.431    l0.099,0.431l0.273,1.134l0.039,0.177l0.099,0.43l0.097,0.431l0.02,0.078l0.078,0.372l0.118,0.43l0.058,0.313l0.04,0.117    l0.098,0.431l0.097,0.449l0.02,0.137l0.059,0.294l0.098,0.431l0.098,0.391v0.06l0.098,0.431l0.098,0.43l0.039,0.215l0.039,0.234    l0.098,0.432v0.039l0.078,0.41l0.059,0.293l0.118,0.529v0.059l0.039,0.117l0.059,0.313l0.078,0.392v0.039l0.137,0.665v0.039    c0.86-2.015,1.897-3.912,3.091-5.614c3.678-5.243,8.764-8.705,14.476-8.705c5.771,0,10.955,2.993,14.672,7.845    c3.56,4.655,5.771,11.053,5.771,18.075c0,1.585-0.117,3.13-0.333,4.655c-0.156,1.076-0.372,2.133-0.626,3.17    c2.876,3.305,5.223,7.355,6.887,11.874c1.741,4.812,2.738,10.172,2.738,15.806c0,4.05-0.509,7.942-1.428,11.581l3.521,0.782    l6.808,1.644c20.168,5.203,37.813,8.548,55.576,10.23c1.682,0.157,3.345,0.313,5.008,0.431l-8.764-19.504    c-0.274-0.625-0.294-1.35,0.02-2.014c0.02-0.039,8.196-17.137,0.391-25.646c-5.927-6.475-4.753-14.222-3.149-24.863    c1.097-7.141,2.387-15.67,1.722-25.9c-1.525-23.787-33.49-42.509-33.568-42.547c-1.135-0.666-1.526-2.152-0.861-3.287    s2.133-1.506,3.287-0.842c0.098,0.06,34.233,20.031,35.936,46.363c0.685,10.798-0.646,19.581-1.761,26.917    c-1.408,9.351-2.445,16.139,1.937,20.911c8.646,9.449,2.641,25.686,0.86,29.911l9.391,20.873    c13.575,0.802,27.544,0.704,43.075-0.235l-0.234-0.9l-0.979-4.205l-0.88-3.854c-7.903-32.043-7.218-41.98-2.681-63.205    l0.039-0.196v-0.019c0.881-4.441,1.84-8.646,2.778-12.834l0.9-4.01l0.078-0.371v-0.039l0.097-0.392    c0.744-3.443,1.507-7.198,2.329-11.347l0.038-0.215C375.475,236.795,376.277,231.455,376.844,225.527z M149.63,240.531    c-0.743-0.724-1.74-1.193-2.855-1.193s-2.133,0.47-2.857,1.193c-0.724,0.725-1.193,1.74-1.193,2.855s0.47,2.113,1.193,2.857    c0.724,0.723,1.742,1.173,2.857,1.173s2.113-0.45,2.855-1.173c0.724-0.744,1.174-1.742,1.174-2.857    S150.354,241.256,149.63,240.531z M124.18,305.164c-0.353-0.352-0.841-0.566-1.389-0.566c-0.528,0-0.998,0.195-1.331,0.527    l-0.039,0.039c-0.353,0.353-0.568,0.842-0.568,1.369c0,0.529,0.196,0.998,0.528,1.351l0.02,0.02    c0.371,0.372,0.861,0.587,1.389,0.587c0.528,0,0.998-0.215,1.35-0.528l0.02-0.039c0.353-0.353,0.567-0.841,0.567-1.39    c0-0.508-0.196-0.997-0.528-1.33L124.18,305.164z M272.891,303.443c-0.255,0.449-0.47,0.959-0.665,1.467    c0.528-0.098,1.057-0.215,1.585-0.371c1.33-0.412,2.602-1.076,3.716-1.977c1.096-0.899,1.996-2.015,2.681-3.247    c0.255-0.47,0.47-0.958,0.665-1.468c-0.548,0.079-1.075,0.216-1.585,0.373c-1.349,0.41-2.601,1.056-3.716,1.955    C274.476,301.096,273.576,302.191,272.891,303.443z M267.257,358.061c0.998,1.818,1.663,3.834,1.976,5.967l0.02,0.234    c0.078,1.33-0.958,2.445-2.269,2.504c-2.152,0.117-4.265-0.137-6.221-0.725c-1.957-0.586-3.756-1.545-5.361-2.836    c-1.604-1.311-2.894-2.895-3.853-4.675c-0.998-1.819-1.663-3.835-1.995-5.967l-0.02-0.235c-0.059-1.33,0.958-2.445,2.288-2.522    c2.152-0.099,4.246,0.137,6.221,0.743c1.938,0.587,3.756,1.545,5.341,2.836C264.988,354.695,266.278,356.28,267.257,358.061z     M132.572,394.25c0.313-2.131,0.978-4.146,1.976-5.965c0.978-1.781,2.269-3.365,3.854-4.677c1.584-1.291,3.403-2.229,5.36-2.837    c1.957-0.605,4.069-0.84,6.221-0.724c1.33,0.06,2.348,1.175,2.289,2.505l-0.019,0.234c-0.333,2.133-0.998,4.146-1.996,5.967    c-0.958,1.78-2.25,3.365-3.854,4.675c-1.604,1.292-3.403,2.249-5.341,2.837c-1.976,0.586-4.088,0.841-6.24,0.723    c-1.311-0.059-2.348-1.172-2.27-2.504L132.572,394.25z M204.384,332.963l0.587,1.467c2.112,5.047,5.223,9.233,8.959,12.128    c2.856,2.211,6.084,3.658,9.526,4.147V327.7l-11.072-12.521c-0.919-1.017-0.821-2.602,0.215-3.521    c1.037-0.899,2.603-0.802,3.522,0.216l7.335,8.293v-17.41l-8.92-10.25c-0.919-1.037-0.802-2.621,0.234-3.521    c1.037-0.919,2.622-0.802,3.542,0.234l5.145,5.908v-8.979c0-1.389,1.115-2.504,2.504-2.504c1.369,0,2.504,1.115,2.504,2.504    v41.394l7.707-9.351c0.86-1.076,2.445-1.232,3.501-0.353c1.077,0.88,1.213,2.445,0.353,3.501l-11.561,14.046v15.317    c5.516-0.783,10.524-4.068,14.299-9.018c4.5-5.869,7.277-14.007,7.277-23.064c0-5.066-0.88-9.84-2.425-14.104    c-1.605-4.383-3.933-8.217-6.769-11.209c-0.625-0.666-0.821-1.585-0.568-2.406c0.333-1.213,0.626-2.504,0.822-3.835    c0.176-1.252,0.274-2.582,0.274-3.951c0-5.908-1.819-11.229-4.734-15.044c-2.778-3.619-6.572-5.868-10.701-5.868    c-3.951,0-7.628,2.603-10.387,6.554c-3.071,4.401-4.988,10.406-5.008,16.49c1.077,9.781,1.232,19.328,0.059,27.896    C209.607,320.619,207.593,327.367,204.384,332.963z M337.348,122.337c0-1.33,1.096-2.405,2.407-2.405    c1.33,0,2.405,1.075,2.405,2.405v11.737c0,1.33-1.075,2.406-2.405,2.406c-1.312,0-2.407-1.076-2.407-2.406V122.337z     M385.1,196.713c1.134,0.664,1.525,2.132,0.881,3.285c-0.666,1.135-2.133,1.526-3.287,0.861l-10.152-5.869    c-1.154-0.664-1.546-2.132-0.881-3.266c0.666-1.154,2.133-1.547,3.286-0.881L385.1,196.713z M382.713,145.753    c1.135-0.665,2.602-0.255,3.268,0.88c0.645,1.154,0.253,2.621-0.9,3.268l-10.153,5.868c-1.134,0.646-2.601,0.255-3.267-0.88    c-0.646-1.154-0.254-2.621,0.881-3.287L382.713,145.753z M315.399,135.894c-0.665-1.135-0.273-2.602,0.86-3.267    c1.154-0.666,2.622-0.273,3.287,0.861l3.58,6.221c0.665,1.134,0.273,2.602-0.861,3.266c-1.154,0.666-2.621,0.274-3.286-0.88    L315.399,135.894z M384.337,170.891c1.33,0,2.405,1.096,2.405,2.406c0,1.33-1.075,2.406-2.405,2.406h-7.16    c-1.331,0-2.406-1.076-2.406-2.406c0-1.311,1.075-2.406,2.406-2.406H384.337z M359.981,133.507    c0.646-1.153,2.112-1.546,3.267-0.88c1.135,0.646,1.525,2.112,0.881,3.267l-3.58,6.201c-0.666,1.154-2.133,1.546-3.267,0.88    c-1.153-0.645-1.546-2.112-0.88-3.266L359.981,133.507z M258.043,384.43c1.428-0.782,2.935-1.564,4.5-2.327    c1.623-0.782,3.325-1.546,5.065-2.27c7.199-2.954,14.418-4.871,21.245-5.79c7.159-0.979,13.929-0.861,19.875,0.254    c1.35,0.254,2.25,1.564,1.996,2.935c-0.255,1.35-1.566,2.229-2.915,1.995c-5.419-1.037-11.66-1.135-18.291-0.234    c-6.436,0.88-13.224,2.68-20.012,5.457l-1.683,0.725c2.426,0.234,4.832,0.527,7.199,0.841c14.144,1.956,27.25,5.38,38.791,9.997    c1.291,0.508,1.898,1.975,1.39,3.247c-0.509,1.29-1.956,1.917-3.247,1.389c-11.17-4.479-23.886-7.786-37.6-9.684    c-13.243-1.819-27.464-2.308-42.175-1.271c-17.88,1.271-34.704,4.695-49.708,9.781c-15.532,5.242-29.147,12.266-40.024,20.501    c-1.095,0.822-2.66,0.606-3.502-0.489c-0.821-1.096-0.606-2.68,0.49-3.501c11.267-8.55,25.372-15.826,41.452-21.245l0.528-0.175    l-0.234-49.689c0-1.369,1.115-2.504,2.484-2.504c1.389,0,2.504,1.115,2.504,2.484l0.215,48.124    c11.562-3.522,24.062-6.085,37.168-7.532v-32.531c0-1.37,1.115-2.504,2.504-2.504c1.37,0,2.504,1.134,2.504,2.504v32.043    c1.076-0.078,2.172-0.177,3.268-0.255C240.77,384.078,249.534,384,258.043,384.43z M26.311,345.169    c-0.294-0.157-0.45-0.235-0.137-0.02L26.311,345.169z" style="fill-rule:evenodd;clip-rule:evenodd;"/></g></g><g id="Layer_1"/></svg>