<?xml version="1.0" ?><!DOCTYPE svg  PUBLIC '-//W3C//DTD SVG 1.1//EN'  'http://www.w3.org/Graphics/SVG/1.1/DTD/svg11.dtd'><svg height="512px" style="enable-background:new 0 0 512 512;" version="1.1" viewBox="0 0 512 512" width="512px" xml:space="preserve" xmlns="http://www.w3.org/2000/svg" xmlns:xlink="http://www.w3.org/1999/xlink"><g id="_x33_15_x2C__mountain_x2C__landscape_x2C__hill_x2C__nature_x2C__tree"><g><path d="M52.641,333.617c2.455-2.551,4.784-5.101,7.064-7.635l0.016-0.016v-0.016    l1.44-1.727l0.855-1.046c6.668-7.903,12.006-14.191,17.628-20.273c5.576-6.034,11.436-11.862,19.196-18.88l0.872-1.123    c-0.919-1.379-7.206-8.475-10.96-12.688l-1.473-1.663c-5.875,5.053-10.532,9.219-14.936,13.621    c-4.719,4.736-9.139,9.788-14.46,16.631l-0.064,0.095c-6.668,8.585-11.466,14.43-16.646,19.957    c-4.356,4.641-8.965,9.027-15.173,14.619C34.712,333.76,44.58,334.045,52.641,333.617 M399.188,285.912l0.016,0.031v0.016    l0.063,0.143l0.444,0.949c3.801,8.521,7.49,16.172,11.355,23.695c3.643,7.111,7.508,14.27,11.784,22.063    c7.349-0.016,14.682-0.078,21.999-0.127c13.685-0.095,27.354-0.205,41.149-0.063c-1.822-2.551-3.517-5.021-5.195-7.46    c-5.116-7.444-10.025-14.587-16.963-21.857c-3.12-3.263-5.987-6.146-8.696-8.869c-7.888-7.952-14.587-14.698-22.49-25.659    c-9.867-13.7-16.107-18.563-28.081-27.907l-1.41-1.093c-1.172,6.035-2.392,10.817-3.976,15.475    c-1.773,5.195-4.022,10.215-7.175,16.614c1.79,3.136,3.357,6.113,4.862,9.17C397.667,282.648,398.427,284.264,399.188,285.912z     M300.213,282.142c-0.206-0.206-0.491-0.333-0.792-0.333c-0.316,0-0.586,0.127-0.792,0.333s-0.333,0.476-0.333,0.792    c0,0.301,0.127,0.586,0.333,0.791c0.206,0.207,0.476,0.333,0.792,0.333c0.301,0,0.586-0.126,0.792-0.333    c0.206-0.205,0.332-0.49,0.332-0.791C300.545,282.617,300.419,282.348,300.213,282.142z M290.947,310.334    c-0.586-0.586-1.394-0.95-2.297-0.95c-0.887,0-1.694,0.364-2.28,0.95c-0.57,0.57-0.935,1.394-0.935,2.28    c0,0.888,0.364,1.695,0.935,2.281c0.586,0.586,1.394,0.95,2.28,0.95c0.903,0,1.711-0.364,2.297-0.95    c0.57-0.586,0.935-1.394,0.935-2.281C291.882,311.728,291.518,310.904,290.947,310.334z M337.069,300.197    c-0.144-0.127-0.349-0.222-0.554-0.222c-0.223,0-0.413,0.095-0.555,0.222c-0.144,0.143-0.223,0.349-0.223,0.555    c0,0.205,0.079,0.412,0.223,0.554c0.126,0.144,0.332,0.222,0.555,0.222c0.189,0,0.363-0.063,0.49-0.158l0.047-0.063    c0.143-0.142,0.238-0.349,0.238-0.554c0-0.189-0.063-0.365-0.174-0.507L337.069,300.197z M299.421,277.754    c1.425,0,2.725,0.587,3.659,1.521c0.934,0.934,1.521,2.217,1.521,3.658c0,1.425-0.587,2.725-1.521,3.658    c-0.935,0.936-2.234,1.521-3.659,1.521c-1.441,0-2.724-0.586-3.658-1.521c-0.935-0.934-1.521-2.233-1.521-3.658    c0-1.441,0.586-2.725,1.521-3.658C296.697,278.341,297.979,277.754,299.421,277.754z M288.65,305.328    c2.012,0,3.849,0.809,5.163,2.123s2.123,3.152,2.123,5.163c0,2.012-0.809,3.833-2.123,5.147c-1.314,1.315-3.151,2.139-5.163,2.139    c-2.011,0-3.832-0.823-5.147-2.139c-1.314-1.314-2.122-3.136-2.122-5.147c0-2.011,0.808-3.849,2.122-5.163    C284.818,306.137,286.64,305.328,288.65,305.328z M336.516,295.92c1.33,0,2.549,0.539,3.42,1.41l0.127,0.159    c0.792,0.854,1.283,2.011,1.283,3.263c0,1.33-0.539,2.55-1.41,3.422l-0.143,0.125c-0.854,0.793-2.027,1.283-3.277,1.283    c-1.332,0-2.551-0.539-3.422-1.408c-0.871-0.872-1.41-2.092-1.41-3.422s0.539-2.551,1.41-3.422S335.168,295.92,336.516,295.92z     M388.021,310.842c1.235,0,2.359,0.49,3.184,1.313c0.823,0.808,1.314,1.933,1.314,3.184c0,1.22-0.491,2.345-1.314,3.168    l-0.031,0.032c-0.824,0.808-1.934,1.298-3.152,1.298c-1.22,0-2.36-0.507-3.168-1.33l-0.031-0.032    c-0.809-0.823-1.299-1.932-1.299-3.136c0-1.251,0.507-2.376,1.314-3.184l0.158-0.143    C385.789,311.284,386.865,310.842,388.021,310.842z M388.338,315.021c-0.063-0.078-0.189-0.126-0.316-0.126    c-0.095,0-0.189,0.032-0.254,0.079l-0.047,0.047c-0.079,0.08-0.143,0.191-0.143,0.317c0,0.111,0.047,0.222,0.111,0.285    l0.031,0.031c0.063,0.08,0.174,0.128,0.301,0.128s0.237-0.048,0.301-0.112l0.031-0.031c0.064-0.063,0.111-0.174,0.111-0.301    C388.465,315.213,388.418,315.102,388.338,315.021z M319.029,324.414c0,1.457,0.174,2.709,0.174,4.15    c1.22-0.444,2.313-1.03,3.295-1.727c4.196-3.01,6.334-8.126,7.032-14.207c0.665-5.766,0.031-12.481-1.315-19.006    c-2.186-10.438-6.287-20.559-9.978-25.707c-0.127-0.174-0.269-0.332-0.46-0.459c-0.871-0.617-2.074-0.412-2.708,0.459    c-2.661,3.723-5.464,9.551-7.649,16.14c-2.503,7.523-4.214,16.107-4.008,23.759c0.205,7.982,2.502,15.014,8.094,19.021    c1.108,0.775,2.313,1.441,3.658,1.964c0-1.394-0.189-2.835-0.189-4.372c-0.428-0.236-0.84-0.49-1.22-0.76    c-4.45-3.199-6.288-9.123-6.479-15.949c-0.189-7.175,1.441-15.3,3.817-22.443c1.615-4.895,3.596-9.297,5.559-12.639    c2.963,5.195,5.988,13.336,7.762,21.777c1.268,6.146,1.869,12.434,1.252,17.771c-0.57,5.053-2.233,9.201-5.418,11.482    C319.869,323.939,319.457,324.193,319.029,324.414z M295.983,348.964c-1.014,0.349-2.122-0.175-2.486-1.172    c-0.349-1.014,0.175-2.122,1.172-2.487c0.048-0.016,13.543-5.068,20.56-1.805l-0.049-11.135    c-6.525,0.602-13.351,0.871-20.796,0.412c-9.771-0.602-16.472-2.123-22.616-3.501c-10.818-2.438-19.989-4.498-40.389-0.966    l-2.059,0.364c-7.38,1.362-14.666,3.137-21.889,4.894c-9.25,2.25-18.42,4.482-27.606,5.781    c-12.829,1.806-23.045-0.521-33.578-2.914c-8.79-1.996-17.786-4.038-28.762-3.912c-3.231,0.048-6.462,0.096-9.677,0.191    c0.981-0.999,2.122-2.203,3.468-3.659l3.564-3.881c3.737-4.056,7.507-8.173,11.324-11.975l0.839-0.839    c5.655-5.416,10.311-8.758,18.5-13.779l2.123-1.236c3.263-1.884,6.763-3.912,10.818-6.54c1.806-1.188,3.643-3.501,5.464-6.573    c5.147-8.157,9.249-20.495,12.116-30.014c2.075-6.463,3.88-12.623,5.259-17.344l1.694-5.702c0.08-0.285,0.111-0.586,0.064-0.871    c3.88-12.18,7.174-16.345,12.481-23.076c2.249-2.835,4.846-6.114,7.872-10.422c11.831-16.884,22.395-23.03,34.068-29.823    c6.794-3.961,13.954-8.126,21.968-14.683l7.223,6.255c10.801,9.314,20.542,17.709,30.331,29.635l1.678,2.123    c3.358,4.275,7.618,8.821,11.91,13.398c3.248,3.469,6.543,6.985,9.584,10.58c3.23,3.833,6.129,7.001,9.265,9.963    c3.152,2.977,6.526,5.701,10.708,8.6l8.947,6.162c9.583,6.636,19.609,13.573,29.27,19.037c1.014,0.57,3.58,4.53,6.494,9.424    c4.165,7.049,8.791,15.791,10.723,19.83l0.031,0.063l0.048,0.095c0.776,1.742,1.567,3.532,2.392,5.433    c6.098,14.033,12.703,26.022,19.894,39.026l0.49,0.887c-7.285-0.031-12.813-0.127-18.309-0.491    c-5.687-0.38-11.309-1.061-18.816-2.249c0.38-1.33,0.649-2.756,0.823-4.244c0.587-5.116,0.032-11.039-1.172-16.805    c-0.57-2.804-1.314-5.56-2.154-8.188l-0.078-0.253l-0.492-1.458l-0.047-0.142l-0.096-0.285l-0.047-0.111l-0.095-0.301    l-0.032-0.096l-0.126-0.316l-0.017-0.063l-0.127-0.35l-0.016-0.047l-0.142-0.35v-0.031l-0.144-0.38l0,0l-0.142-0.364l-0.017-0.031    l-0.127-0.35l-0.031-0.047l-0.127-0.316l-0.016-0.079l-0.127-0.285l-0.031-0.095l-0.111-0.27l-0.047-0.127l-0.111-0.237    l-0.047-0.144l-0.096-0.205l-0.063-0.158l-0.095-0.207l-0.063-0.173L376,293.402l-0.08-0.206l-0.078-0.142l-0.095-0.223    l-0.048-0.11l-0.111-0.237l-0.047-0.096l-0.111-0.253l-0.047-0.079l-0.127-0.27l-0.016-0.063l-0.143-0.285l-0.016-0.032    l-0.144-0.301l-0.016-0.016l-0.157-0.317l0,0l-0.144-0.301l-0.016-0.032l-0.143-0.269l-0.031-0.049l-0.128-0.252l-0.031-0.064    l-0.126-0.221l-0.032-0.08l-0.127-0.221l-0.047-0.08l-0.111-0.189l-0.048-0.111l-0.095-0.174l-0.079-0.111l-0.079-0.158    l-0.08-0.127l-0.078-0.127l-0.095-0.157l-0.064-0.112l-0.095-0.157l-0.063-0.096l-0.096-0.174l-0.047-0.079l-0.127-0.174    l-0.032-0.063l-0.126-0.19l-0.033-0.047l-0.125-0.191l-0.032-0.031l-0.144-0.205v-0.017l-0.157-0.222l-0.032-0.031v-0.016    l-0.016-0.016l-0.016-0.018l-0.016-0.016l-0.016-0.016v-0.016l-0.031-0.031l-0.033-0.031l0,0l-0.016-0.032h-0.016l-0.016-0.016    l-0.016-0.017l-0.016-0.016l-0.032-0.031l0,0l-0.032-0.031l0,0l-0.031-0.016v-0.016l-0.031-0.016l0,0l-0.031-0.033h-0.016    l-0.017-0.016l-0.017-0.016l-0.016-0.016l-0.031-0.016l-0.016-0.017l-0.016-0.016h-0.017l-0.031-0.016l-0.017-0.017l-0.016-0.016    l0,0l-0.031-0.016h-0.016l-0.016-0.016l-0.127-0.063h-0.016l-0.032-0.016h-0.016l-0.032-0.017l-0.016-0.017h-0.031l-0.016-0.016    h-0.031v-0.016h-0.048l-0.048-0.016l0,0l-0.032-0.016h-0.016l-0.032-0.017h-0.016h-0.031h-0.016l-0.031-0.016h-0.016h-0.032    h-0.016l-0.032-0.016l0,0h-0.048l0,0h-0.048l0,0h-0.047l0,0H370.6l0,0h-0.048l0,0h-0.048l0,0h-0.048l0,0h-0.048l0,0h-0.047l0,0    h-0.031h-0.016l-0.031,0.016h-0.017h-0.031h-0.017l-0.031,0.016h-0.017h-0.031l0,0l-0.048,0.017l0,0l-0.047,0.016l0,0    l-0.047,0.016h-0.032l-0.016,0.016h-0.032l-0.016,0.016h-0.032l-0.016,0.017l-0.032,0.017h-0.016l-0.031,0.016l0,0l-0.143,0.063    l-0.016,0.016h-0.016l-0.031,0.016l0,0l-0.018,0.016l-0.016,0.017l-0.031,0.016h-0.016l-0.016,0.016l-0.016,0.017l-0.031,0.016    l-0.017,0.016l-0.016,0.016l-0.016,0.016h-0.017l-0.031,0.033l0,0l-0.031,0.016v0.016l-0.031,0.016l0,0l-0.033,0.031l0,0    l-0.031,0.031l-0.016,0.016l-0.016,0.017l-0.016,0.016h-0.016l-0.017,0.032l0,0l-0.031,0.031l-0.032,0.031v0.016l-0.016,0.016    l-0.016,0.016l-0.016,0.018L369,286.244v0.016l-0.031,0.031l-0.111,0.158l-0.048,0.08l-0.063,0.078l-0.111,0.158l0,0l-0.11,0.159    l-0.048,0.079l-0.063,0.095l-0.111,0.159v0.016l-0.111,0.158l-0.047,0.079l-0.063,0.095l-0.096,0.175l-0.016,0.016l-0.11,0.174    l-0.047,0.08l-0.064,0.095l-0.111,0.174v0.016l-0.109,0.19l-0.048,0.079l-0.064,0.111l-0.095,0.158l-0.016,0.031l-0.11,0.19    l-0.048,0.079l-0.064,0.111l-0.109,0.174v0.031l-0.111,0.19l-0.048,0.079l-0.063,0.127l-0.095,0.174l-0.016,0.031l-0.111,0.207    l-0.048,0.078l-0.063,0.127l-0.096,0.189l-0.016,0.032l-0.111,0.206l-0.047,0.079l-0.063,0.144l-0.095,0.174l-0.016,0.031    l-0.111,0.222l-0.031,0.079l-0.08,0.143l-0.094,0.19l-0.016,0.032l-0.111,0.221l-0.032,0.08l-0.079,0.158l-0.078,0.174    l-0.017,0.048l-0.111,0.237l-0.032,0.063l-0.078,0.157l-0.079,0.191l-0.032,0.047l-0.111,0.238l-0.016,0.063l-0.158,0.364    l-0.031,0.048l-0.111,0.237l-0.016,0.063l-0.158,0.365l-0.032,0.063l-0.11,0.238l-0.016,0.063l-0.079,0.191l-0.08,0.189    l-0.031,0.063l-0.095,0.254l-0.031,0.047l-0.08,0.19l-0.063,0.19l-0.032,0.063l-0.094,0.253l-0.111,0.27l-0.063,0.174    l-0.032,0.079l-0.094,0.254l-0.032,0.063l-0.079,0.205l-0.064,0.176l-0.031,0.078l-0.095,0.27l-0.016,0.047l-0.079,0.207    l-0.063,0.189l-0.033,0.08l-0.095,0.268l-0.016,0.049l-0.079,0.221l-0.206,0.586l-0.079,0.223    c-1.029,3.025-1.916,6.24-2.566,9.486c-0.537,2.725-0.918,5.48-1.092,8.157l-0.016,0.27V318l-0.016,0.332v0.19l-0.017,0.126v0.176    v0.157l-0.016,0.128v0.189v0.111v0.221v0.064l-0.016,0.253v0.048v0.285l0,0v0.285v0.031v0.27v0.047l0.016,0.237v0.079v0.206v0.111    v0.174c0.032,0.935,0.095,1.87,0.189,2.771l0.017,0.048c0.127,1.204,0.316,2.359,0.57,3.469    c-10.264-0.031-19.467,1.22-28.747,2.486c-3.786,0.523-7.587,1.03-11.468,1.457l0.08,16.916l0,0    c2.708,6.32,40.545,6.842,49.764,6.873L369,339.381c-0.111-0.252-0.175-0.521-0.175-0.807v-2.803    c-0.237-0.144-0.459-0.302-0.681-0.461c-1.98-1.409-3.342-3.436-4.245-5.859l-0.031-0.111c-1.885-5.211-1.616-12.195-0.237-19.068    c0.633-3.185,1.504-6.32,2.502-9.267l0.031-0.048l0.316-0.934l0.048-0.144l0.144-0.364l0.047-0.11l0.016-0.079l0.079-0.189    l0.016-0.048l0.333-0.855l0.016-0.048l0.048-0.143l0.063-0.158l0.016-0.016l0.348-0.855v-0.031l0.223-0.523l0.016-0.016    l0.063-0.158l0.063-0.127l0.016-0.031l0.064-0.174l0.047-0.08l0.031-0.095l0.063-0.159l0.016-0.031l0.063-0.143l0.064-0.127    l0.016-0.031l0.078-0.174l0.031-0.079l0.032-0.079l0.079-0.174l0.016-0.016l0.206-0.461l0.048-0.063l0.031-0.095l0.08-0.159    l0.016-0.016l0.364-0.76v-0.017l0.38-0.728l0.016-0.017l0.127-0.237l0.016-0.048l0.237-0.427l0,0l0.128-0.238l0.016-0.047    l0.078-0.127l0.031-0.048l0.128-0.222l0.126,0.205l0.111,0.223l0.016,0.031l0.522,0.982l0.063,0.127l0.19,0.396l0.048,0.079    l0.348,0.761l0.111,0.222v0.031l0.127,0.254l0,0l0.111,0.253l0.016,0.016c0.696,1.567,1.361,3.278,2.011,5.085l0.032,0.126    c0.316,0.871,0.602,1.759,0.887,2.677l0,0l0.206,0.649l0.016,0.031l0.079,0.285l0.016,0.064l0.08,0.253l0.016,0.096l0.079,0.237    l0.031,0.11l0.048,0.207l0.047,0.142l0.047,0.19l0.191,0.665l0.047,0.206l0.031,0.11l0.063,0.254l0.032,0.079l0.063,0.27    l0.016,0.063l0.079,0.301v0.031l0.175,0.682l0,0l0.079,0.332v0.033l0.078,0.301l0.017,0.063l0.063,0.27l0.016,0.096l0.063,0.237    l0.017,0.126l0.047,0.223l0.031,0.126l0.048,0.206l0.031,0.175l0.032,0.157l0.048,0.207l0.016,0.047l0.048,0.254v0.063    l0.047,0.191l0.031,0.174l0.016,0.078l0.048,0.254v0.031l0.048,0.223l0.032,0.143l0.016,0.11l0.048,0.222v0.032l0.047,0.253v0.048    l0.047,0.205l0.017,0.144l0.016,0.11l0.048,0.222v0.031l0.047,0.254v0.047l0.032,0.207l0.017,0.142l0.031,0.112l0.031,0.221v0.031    l0.031,0.254l0.016,0.047l0.032,0.207l0.016,0.143l0.016,0.11l0.032,0.222v0.031l0.031,0.254v0.048l0.031,0.205l0.018,0.128    l0.016,0.109l0.016,0.223l0.016,0.031l0.016,0.254l0.016,0.063l0.016,0.191l0.016,0.142l0.016,0.111l0.017,0.206v0.031    l0.031,0.254v0.047l0.017,0.206l0.016,0.126v0.111l0.031,0.223v0.031l0.016,0.253v0.048l0.016,0.189l0.016,0.254l0.018,0.206    v0.032l0.016,0.253v0.048l0.016,0.189v0.127l0.016,0.332v0.032c0.063,1.932,0.016,3.802-0.19,5.56l-0.063,0.538l-0.016,0.063    l-0.078,0.602l-0.033,0.175v0.031l-0.031,0.19l-0.016,0.063l-0.032,0.126l-0.016,0.143l-0.016,0.048l-0.032,0.206l-0.016,0.016    l-0.047,0.27l-0.016,0.095l-0.048,0.174l0,0l-0.048,0.19l-0.016,0.079l-0.032,0.111l-0.095,0.364l-0.016,0.047    c-0.19,0.682-0.412,1.346-0.665,1.964l-0.016,0.048c-0.776,1.838-1.87,3.342-3.326,4.387c-0.222,0.159-0.46,0.302-0.698,0.444    v2.059c0.096,0.237,0.159,0.491,0.159,0.761l0.063,15.442c5.559-3.357,16.9-8.505,21.635,1.663    c0.46,0.981,0.032,2.138-0.949,2.582c-0.967,0.443-2.123,0.016-2.566-0.95c-3.896-8.363-16.092-0.144-18.515,1.599    c-0.38,0.491-0.95,0.792-1.6,0.792c-0.19,0-0.365-0.016-0.538-0.063c-5.37,0.016-50.526-0.126-54.913-9.565    c-0.253-0.333-0.396-0.745-0.396-1.188v-0.063C313.201,342.581,296.031,348.948,295.983,348.964z M62.461,328.723    c-1.219,1.457-2.708,3.168-4.166,4.688l3.532-0.094c8.758-0.27,17.438-0.523,26.371-0.508c3.231,0,5.576,0.143,7.429,0.254    c3.23,0.205,4.831,0.301,6.763-0.918l0.95-0.855c1.331-1.205,3.438-3.089,6.162-6.082c7.159-7.889,11.863-12.957,16.187-16.964    l0.047-0.048l0.126-0.111c6.463-6.082,11.705-9.375,17.549-12.781c3.136-1.916,6.763-4.086,11.135-6.684l0.523-0.301    c2.233-1.33,4.371-3.96,6.351-7.334l0,0l0.016-0.016c3.739-6.826,7.555-17.469,10.771-27.511c0.649-2.187,1.251-4.229,1.774-6.034    l4.498-15.49l0.189-0.633l-7.27-4.832l-7.381-4.989c-4.403,3.865-8.759,7.444-13.161,11.087l-1.87,1.553    c-5.067,4.244-8.932,7.903-12.48,11.784c-3.547,3.864-6.842,8.014-10.722,13.225l-0.063,0.096    c-4.941,6.572-9.376,11.974-14.096,17.169c-4.705,5.194-9.63,10.104-15.586,15.727c-9.233,8.696-16.709,17.297-24.249,25.976    C68.733,321.611,65.676,325.159,62.461,328.723z" style="fill-rule:evenodd;clip-rule:evenodd;"/></g></g><g id="Layer_1"/></svg>