<?xml version="1.0" ?><!DOCTYPE svg  PUBLIC '-//W3C//DTD SVG 1.1//EN'  'http://www.w3.org/Graphics/SVG/1.1/DTD/svg11.dtd'><svg height="512px" style="enable-background:new 0 0 512 512;" version="1.1" viewBox="0 0 512 512" width="512px" xml:space="preserve" xmlns="http://www.w3.org/2000/svg" xmlns:xlink="http://www.w3.org/1999/xlink"><g id="_x33_05_x2C__mountain_x2C__landscape_x2C__hill_x2C__nature_x2C__birds"><g><path d="M257.894,233.956c-0.904-0.942-0.865-2.441,0.056-3.345    c0.942-0.885,2.442-0.865,3.327,0.076c0.075,0.059,21.798,22.529,32.254,22.529c6.305,0,11.283,9.744,16.724,20.395    c6.438,12.57,13.627,26.621,21.758,23.623c19.664-7.266,33.83,26.354,33.869,26.449c0.52,1.191-0.039,2.575-1.23,3.094    c-1.191,0.52-2.576-0.019-3.096-1.211c-0.038-0.096-12.513-29.602-27.928-23.911c-12.033,4.46-20.223-11.571-27.564-25.911    c-4.748-9.303-9.093-17.799-12.532-17.799C281.112,257.945,257.949,234.014,257.894,233.956 M336.703,260.386l0.346,0.423    l0.058,0.058l0.308,0.366l0.076,0.096l0.191,0.23l0.097,0.115l0.116,0.115l0.191,0.23l0.058,0.077l0.154,0.153l0.191,0.23    l0.038,0.039l0.174,0.192l0.191,0.212v0.019l0.213,0.212l0.174,0.191l0.018,0.039l0.212,0.211l0.154,0.173l0.056,0.058    l0.193,0.212l0.135,0.135l0.076,0.077l0.212,0.23l0.097,0.096l0.114,0.115l0.212,0.212l0.059,0.077l0.135,0.135l0.211,0.211    l0.038,0.038l0.174,0.173l0.21,0.212h0.02l0.191,0.212l0.193,0.191l0.02,0.02l0.229,0.211l0.154,0.135l0.058,0.077l0.211,0.192    l0.115,0.115l0.098,0.096l0.21,0.192l0.097,0.097l0.135,0.115l0.211,0.191l0.058,0.058l0.154,0.154l0.229,0.192l0.02,0.02    l0.193,0.172l0.211,0.192h0.02l0.212,0.212l0.19,0.154l0.039,0.038l0.213,0.192l0.152,0.135l0.077,0.057l0.212,0.192l0.134,0.097    l0.097,0.096l0.231,0.174l0.44,0.384l0.059,0.038l0.173,0.154l0.462,0.365l0.211,0.173h0.019l0.231,0.192l0.172,0.135l0.059,0.038    l0.231,0.173l0.134,0.115l0.096,0.076l0.232,0.174l0.113,0.096l0.116,0.077l0.229,0.173l0.078,0.059l0.154,0.114l0.229,0.173    l0.058,0.039l0.193,0.135l0.229,0.172l0.02,0.02l0.693,0.48l0.172,0.135l0.116,0.077l0.268,0.192l0.059,0.039l0.229,0.152    l0.231,0.154l0.039,0.039l0.287,0.173l0.116,0.077l0.172,0.115l0.271,0.191h0.02l0.268,0.192l0.174,0.097l0.114,0.076l0.29,0.193    l0.038,0.018l0.249,0.154l0.213,0.135l0.075,0.039l0.29,0.191l0.094,0.059l0.193,0.115l0.269,0.153l0.038,0.019l0.29,0.174    l0.134,0.096l0.154,0.077l0.287,0.173l0.02,0.02l0.288,0.154l0.192,0.114l0.098,0.058l0.287,0.174l0.077,0.038l0.229,0.115    l0.252,0.134l0.038,0.039l0.308,0.154l0.115,0.076l0.172,0.096l0.309,0.154l0,0l0.308,0.154l0.172,0.096l0.136,0.058l0.287,0.173    l0.059,0.02l0.25,0.135l0.23,0.115l0.077,0.038l0.307,0.154l0.097,0.038l0.211,0.096l0.27,0.154h0.039l0.307,0.153l0.154,0.077    l0.153,0.077l0.309,0.135l0.018,0.019l0.29,0.135l0.21,0.096l0.097,0.039l0.326,0.153l0.077,0.02l0.231,0.115l0.25,0.115    l0.058,0.02l0.326,0.153l0.116,0.039l0.191,0.096l0.309,0.135h0.02l0.307,0.135l0.172,0.076l0.135,0.059l0.326,0.115l0.059,0.038    l0.269,0.097l0.231,0.096l0.077,0.039l0.327,0.134l0.115,0.038l0.211,0.077l0.289,0.115l0.037,0.02l0.309,0.115l0.172,0.058    l0.154,0.076l0.326,0.115h0.039l0.288,0.116l0.212,0.077l0.116,0.038l0.326,0.115l0.077,0.038l0.249,0.077l0.269,0.097l0.059,0.02    l0.326,0.115l0.154,0.057l0.193,0.059l0.326,0.115c0.613,0.211,1.075,0.635,1.346,1.172l0.057,0.077v0.019l0.038,0.078    l0.019,0.037l0.02,0.059l0.039,0.058l0.02,0.019l0.02,0.077l0.019,0.02l0.038,0.096l0,0l0.059,0.097l0,0l0.039,0.096l0.02,0.02    l0.038,0.077l0.019,0.038l0.02,0.058l0.037,0.058l0.059,0.135l0.038,0.076l0.019,0.02l0.039,0.096l0,0l0.059,0.097v0.02    l0.058,0.096l0,0l0.038,0.097l0.02,0.02c0.904,1.845,1.902,3.883,2.961,6.093c8.917,18.415,24.141,49.842,39.02,59.876    l0.479,0.308h0.02c3.172,1.979,6.305,2.94,9.342,2.519c30.485-4.172,34.695-3.634,61.528-0.25l0.31,0.038    c-8.958-7.497-15.974-17.28-21.319-28.025c-6.188-12.379-10.166-26.084-12.455-38.963l-1.307-0.48    c-15.742-5.786-31.505-11.571-40.807-35.714c-15.359,1.729-24.951-10.227-34.197-22.932c-5.555,8.381-11.687,15.146-18.317,20.471    l-0.136,0.096C351.004,254.043,344.064,257.829,336.703,260.386z M106.636,281.491c0.751-1.057,2.23-1.307,3.287-0.558    c1.058,0.75,1.307,2.23,0.539,3.287c0,0.02-4.747,7.112-16.051,16.473c-5.285,4.383-8.361,7.882-10.072,10.957    c-1.614,2.902-2.037,5.498-2.037,8.207c0,7.074-20.183,25.72-20.239,25.777c-0.961,0.865-2.443,0.788-3.325-0.174    c-0.865-0.979-0.79-2.459,0.172-3.344c0.058-0.039,18.666-17.146,18.666-22.26c0-3.401,0.556-6.727,2.651-10.494    c2-3.595,5.42-7.535,11.188-12.303C102.215,288.104,106.616,281.511,106.636,281.491z M253.991,356.303l-0.116-0.096l-0.461-0.365    l-0.23-0.192l-0.077-0.058l-0.577-0.5l-0.039-0.02l-0.211-0.191l-0.461-0.404l-0.116-0.096l-0.556-0.52l-0.02-0.02l-0.539-0.499    l-0.116-0.135l-0.423-0.423l-0.25-0.23l-0.039-0.059l-0.039-0.038l-0.058-0.038l-0.039-0.039l-0.039-0.037l-0.039-0.039    l-0.037-0.039l-0.039-0.037l-0.039-0.039l-0.039-0.058l0,0l-0.039-0.038l-0.039-0.039l-0.039-0.038l-0.039-0.039l-0.039-0.038l0,0    l-0.039-0.039l0,0l-0.039-0.057l-0.037-0.039l-0.039-0.038l-0.039-0.039l-0.039-0.038h-0.02l-0.039-0.039l0,0l-0.039-0.057l0,0    l-0.039-0.039l0,0l-0.039-0.039l0,0l-0.039-0.037l-0.039-0.039l-0.037-0.058l-0.039-0.038l-0.039-0.039l-0.039-0.038l-0.039-0.038    l-0.039-0.059l-0.097-0.076l-0.519-0.596l-0.037-0.039l-0.5-0.576l-0.384-0.423l-0.154-0.192l-0.23-0.27l-0.29-0.346l-0.346-0.423    l-0.172-0.212l-0.442-0.557l-0.077-0.096l-0.52-0.654l-0.019-0.038l-0.481-0.615l-0.133-0.192l-0.367-0.48l-0.249-0.326    l-0.269-0.365l-0.328-0.462l-0.153-0.212l-0.442-0.615l-0.058-0.096l-0.5-0.691l-0.039-0.059l-0.442-0.653l-0.133-0.211    l-0.348-0.5l-0.23-0.365l-0.249-0.365l-0.328-0.499l-0.133-0.231l-0.423-0.653l-0.058-0.077l-0.461-0.749l-0.039-0.059    l-0.423-0.672l-0.135-0.23l-0.326-0.52l-0.23-0.385l-0.231-0.365l-0.307-0.538l-0.135-0.212l-0.403-0.691l-0.039-0.076    l-0.442-0.75l-0.056-0.096l-0.386-0.674l-0.133-0.25l-0.307-0.519l-0.212-0.403l-0.21-0.365l-0.309-0.558l-0.114-0.212    l-0.386-0.711l-0.037-0.058l-0.423-0.769l-0.058-0.096l-0.347-0.674l-0.133-0.25l-0.271-0.519l-0.23-0.403l-0.193-0.365    l-0.288-0.558l-0.116-0.192l-0.365-0.73l-0.019-0.039l-0.404-0.768l-0.058-0.115l-0.326-0.654l-0.133-0.269l-0.251-0.481    l-0.21-0.422l-0.174-0.328l-0.288-0.576l-0.078-0.191l-0.365-0.712l-0.02-0.038l-0.365-0.73l-0.058-0.135l-0.307-0.615    l-0.135-0.269l-0.232-0.462l-0.21-0.422l-0.135-0.309l-0.288-0.576l-0.077-0.154l-0.346-0.711l0,0l-0.346-0.711l-0.058-0.135    l-0.288-0.576l-0.135-0.27l-0.193-0.441l-0.191-0.404l-0.154-0.288l-0.249-0.538l-0.078-0.135l-0.326-0.674l-3.018-6.266    c-8.574-3.018-16.165-7.631-22.566-14.166l-0.307-0.309l-0.29-0.307l-0.288-0.308l-0.288-0.327l-0.29-0.307l-0.288-0.328l0,0    l-0.288-0.307l-0.29-0.327l-0.269-0.327l0,0l-0.288-0.326l0,0l-0.27-0.346l-0.288-0.327l-0.269-0.347l0,0l-0.27-0.326l0,0    l-0.269-0.346l0,0L195,286.566l-0.27-0.347v-0.019l-0.269-0.346l-0.269-0.347l0,0l-0.251-0.365h-0.019l-0.25-0.365l0,0    l-0.251-0.365l0,0l-0.268-0.365l-0.25-0.364l0,0l-0.251-0.366l-0.249-0.384l0,0l-0.251-0.385l0,0l-0.249-0.365l-0.249-0.385v-0.02    l-0.232-0.385l0,0l-0.249-0.384l0,0l-0.231-0.384h-0.02l-0.23-0.404l0,0l-0.231-0.404l0,0l-0.23-0.402l0,0L190,279.012l0,0    l-0.23-0.403l0,0l-0.23-0.403l0,0l-0.231-0.424l0,0l-0.23-0.422l0,0l-0.212-0.404v-0.02l-0.23-0.422l0,0l-0.212-0.424l0,0    l-0.211-0.423h-0.019l-0.212-0.423v-0.02l-0.21-0.422l0,0l-0.212-0.443l0,0l-0.21-0.441l0,0l-0.193-0.441l0,0l-0.21-0.443v-0.019    l-0.212-0.442l0,0l-0.191-0.441v-0.02l-0.212-0.442l0,0l-0.191-0.461l0,0l-0.193-0.462l0,0l-0.191-0.461v-0.02l-0.193-0.461l0,0    l-0.191-0.48l0,0l-0.193-0.461l0,0l-0.174-0.481l0,0l-0.191-0.48l0,0l-0.174-0.499l0,0l-0.172-0.481l0,0l-0.193-0.479v-0.02    l-0.172-0.02l-0.174-0.02l-0.135-0.038h-0.039l-0.346-0.058l-0.077-0.02h-0.095l-0.174-0.038l-0.174-0.038h-0.037l-0.154-0.02    l-0.174-0.039l-0.153-0.02h-0.019l-0.174-0.038l-0.172-0.038l-0.097-0.02h-0.077l-0.691-0.135l-0.174-0.037l0,0l-0.174-0.039    l-0.172-0.039l-0.135-0.019l-0.039-0.02l-0.172-0.038l-0.174-0.02l-0.077-0.02l-0.095-0.019l-0.173-0.039l-0.174-0.038l-0.02-0.02    l-0.152-0.02l-0.174-0.038l-0.153-0.038h-0.019l-0.155-0.039l-0.173-0.038l-0.114-0.038l-0.058-0.02l-0.173-0.039l-0.172-0.037    h-0.058l-0.116-0.039l-0.174-0.039l-0.172-0.037l0,0l-0.174-0.039l-0.153-0.058l-0.135-0.02l-0.039-0.019l-0.173-0.039    l-0.518-0.135l-0.174-0.058h-0.02c-0.558-0.153-1.114-0.308-1.653-0.461l-0.174-0.058l0,0l-0.172-0.058l-1-0.308l-0.384-0.115    l-0.191-0.059l-0.751-0.249l-0.191-0.077h-0.039l-0.135-0.058c-1.191-0.403-2.364-0.846-3.536-1.326l-0.174-0.077l-0.558-0.23    l-0.037-0.02l-1.308-0.557l-0.116-0.059l-0.174-0.076l-0.365-0.174l-0.172-0.076l-0.039-0.02l-0.135-0.076l-0.365-0.154    l-0.193-0.096l-0.172-0.077l0,0l-0.174-0.097l-0.172-0.076l-0.097-0.039l-0.096-0.058l-0.172-0.097l-0.155-0.057l-0.019-0.02    l-0.193-0.096l-0.172-0.077l-0.039-0.038l-0.135-0.059l-0.172-0.096l-0.116-0.058l-0.077-0.038l-0.172-0.077l-0.174-0.097    l-0.019-0.019l-0.155-0.077l-0.172-0.096l-0.097-0.039l-0.077-0.057l-0.058-0.02l-0.058-0.039    c-1.902-1.038-3.787-2.172-5.631-3.402c-8.284-5.574-15.858-13.263-22.547-23.335c-8.958,12.321-18.281,23.893-33.158,22.239    c-9.055,23.432-24.374,29.063-39.675,34.695l-1.23,0.442c-2.652,15.954-8.514,32.639-16.107,45.882    c-5.056,8.823-10.918,16.166-17.165,20.838h3.555c10.572,0,18.856-0.77,27.892-1.596c3.92-0.347,7.958-0.73,11.801-1.02    c13.61-1.037,24.566,0.02,35.734,1.076c7.363,0.711,14.82,1.424,23.104,1.539l12.878,0.134    c13.455,0.115,22.567,2.134,31.063,3.998c12.36,2.729,23.45,5.171,45.518,0.653c10.014-2.037,16.204-3.229,22.47-3.921    C244.245,356.63,248.493,356.398,253.991,356.303z M318.979,203.009c-3.69-7.228-19.03,0.423-19.068,0.442    c-1.211,0.615-2.69,0.115-3.287-1.096c-0.614-1.211-0.116-2.672,1.097-3.287c0.039-0.02,15.991-7.977,23.471-1.172    c7.496-6.805,23.431,1.152,23.488,1.172c1.211,0.615,1.691,2.076,1.096,3.287c-0.617,1.211-2.076,1.711-3.287,1.096    c-0.039-0.02-15.396-7.67-19.068-0.442l-0.02,0.038l0,0l-0.039,0.059l0,0l-0.018,0.057l0,0l-0.039,0.039l0,0l-0.038,0.058l0,0    l-0.02,0.058l0,0l-0.038,0.039l0,0l-0.039,0.057l0,0l-0.039,0.039v0.02l-0.038,0.037l0,0l-0.038,0.039v0.02l-0.039,0.02v0.019    l-0.039,0.038l0,0l-0.038,0.039h-0.018l-0.02,0.038l-0.019,0.02l-0.02,0.019l-0.02,0.02l-0.039,0.02v0.02l-0.038,0.019l-0.02,0.02    l-0.038,0.038l0,0l-0.039,0.02l-0.02,0.02l-0.038,0.02l0,0l-0.058,0.038l0,0l-0.039,0.038l0,0l-0.057,0.02l0,0l-0.058,0.039l0,0    l-0.038,0.037h-0.02l-0.039,0.02h-0.02l-0.038,0.02l-0.02,0.02l-0.038,0.02h-0.02l-0.039,0.019h-0.02l-0.019,0.019h-0.037    l-0.019,0.02l-0.098,0.039h-0.019l-0.038,0.02h-0.02h-0.039l-0.02,0.019h-0.039h-0.019l-0.038,0.019h-0.02l-0.037,0.02h-0.02    h-0.039h-0.019h-0.038l-0.02,0.02h-0.039h-0.02h-0.058l0,0h-0.058l0,0l-0.059,0.02l0,0h-0.056l0,0h-0.058h-0.02h-0.039h-0.02    l-0.038-0.02h-0.02h-0.038h-0.02h-0.039h-0.02h-0.038l-0.019-0.02h-0.037h-0.02h-0.059l0,0l-0.058-0.02l0,0l-0.038-0.019h-0.02    h-0.059v-0.019h-0.038h-0.038l-0.02-0.02h-0.039l-0.075-0.039l-0.038-0.02h-0.02l-0.039-0.019h-0.02l-0.038-0.019h-0.02    l-0.038-0.02l-0.02-0.02l-0.039-0.02l0,0l-0.058-0.02l0,0l-0.056-0.037l0,0l-0.039-0.039l0,0l-0.059-0.02l0,0l-0.057-0.038l0,0    l-0.039-0.038l0,0l-0.059-0.02v-0.02l-0.038-0.02h-0.02l-0.038-0.038v-0.02l-0.039-0.019l-0.02-0.02l-0.018-0.02l-0.02-0.02    l-0.038-0.019v-0.02l-0.038-0.038l0,0l-0.039-0.039h-0.02l-0.02-0.038l-0.019-0.019l-0.02-0.02l-0.02-0.02l-0.019-0.039h-0.02    l-0.02-0.037l-0.02-0.02l-0.02-0.039h-0.02l-0.019-0.057l0,0l-0.038-0.039l0,0l-0.037-0.058l0,0l-0.02-0.058l0,0l-0.039-0.039l0,0    l-0.02-0.057h-0.019l-0.02-0.059l0,0L318.979,203.009z M356.058,156.262c-3.748-7.112-18.989,0.519-19.048,0.538    c-1.211,0.596-2.672,0.115-3.287-1.097c-0.596-1.21-0.115-2.69,1.096-3.305c0.058-0.02,15.992-7.978,23.488-1.154    c7.478-6.823,23.432,1.135,23.49,1.154c1.21,0.614,1.691,2.095,1.094,3.305c-0.613,1.212-2.075,1.692-3.286,1.097    c-0.058-0.02-15.454-7.728-19.087-0.423c-0.615,1.211-2.095,1.711-3.305,1.096C356.674,157.223,356.289,156.78,356.058,156.262z     M255.221,169.39c-3.748-7.112-19.011,0.5-19.049,0.519c-1.211,0.596-2.671,0.116-3.287-1.096    c-0.595-1.211-0.114-2.69,1.097-3.286c0.056-0.038,15.991-7.997,23.47-1.173c7.496-6.824,23.45,1.135,23.489,1.173    c1.21,0.596,1.711,2.075,1.095,3.286c-0.597,1.212-2.076,1.691-3.287,1.096c-0.038-0.019-15.435-7.707-19.088-0.422    c-0.595,1.211-2.076,1.711-3.286,1.114C255.835,170.332,255.432,169.89,255.221,169.39z M399.787,343.924    c-11.955-14.82-22.508-36.829-28.947-50.303l-3.094-6.421l-0.348-0.115l-0.191-0.077l-0.135-0.038l-0.326-0.135l-0.078-0.019    l-0.268-0.097l-0.271-0.097l-0.056-0.019l-0.328-0.135l-0.153-0.038l-0.173-0.077l-0.346-0.135l0,0l-0.327-0.115l-0.212-0.097    l-0.114-0.037l-0.328-0.135l-0.075-0.02l-0.252-0.096l-0.287-0.115l-0.039-0.02l-0.326-0.135l-0.154-0.077l-0.154-0.058    l-0.326-0.135l-0.039-0.02l-0.287-0.114l-0.23-0.097l-0.096-0.038l-0.327-0.154l-0.097-0.038l-0.52-0.23h-0.02l-0.307-0.154    l-0.193-0.076l-0.133-0.058l-0.328-0.154l-0.039-0.019l-0.268-0.116l-0.25-0.115l-0.058-0.038l-0.326-0.154l-0.116-0.057    l-0.193-0.097l-0.307-0.153h-0.02l-0.307-0.154l-0.193-0.096l-0.113-0.059l-0.31-0.153l-0.077-0.038l-0.229-0.115l-0.249-0.135    l-0.059-0.02l-0.309-0.173l-0.133-0.058l-0.789-0.423l-0.211-0.115l-0.098-0.058l-0.307-0.154l-0.077-0.058l-0.499-0.269    l-0.038-0.02l-0.29-0.173l-0.152-0.077l-0.154-0.096l-0.307-0.174l-0.02-0.02l-0.271-0.152l-0.21-0.115l-0.097-0.059l-0.288-0.173    l-0.097-0.058l-0.21-0.115l-0.271-0.174l-0.02-0.018l-0.288-0.174l-0.174-0.096l-0.133-0.097l-0.289-0.173l-0.039-0.039    l-0.249-0.152l-0.229-0.135l-0.31-0.212l-0.038-0.02l-0.114-0.077l-0.193-0.115l-0.288-0.191l-0.287-0.192l-0.174-0.115    l-0.115-0.077l-0.289-0.192l-0.057-0.058l-0.211-0.135l-0.251-0.173l-0.038-0.038l-0.289-0.192l-0.135-0.097l-0.152-0.115    l-0.289-0.211h-0.02l-0.288-0.211l-0.154-0.116l-0.134-0.096l-0.289-0.212l-0.037-0.02l-0.251-0.191l-0.191-0.135l-0.097-0.077    l-0.287-0.23l-0.059-0.038l-0.23-0.174l-0.211-0.172l-0.078-0.059l-0.287-0.211l-0.077-0.077l-0.212-0.153l-0.23-0.193    l-0.058-0.037l-0.269-0.231l-0.116-0.077l-0.173-0.153l-0.27-0.212l-0.02-0.02l-0.268-0.229l-0.135-0.116l-0.155-0.115    l-0.269-0.23l-0.02-0.02l-0.248-0.211l-0.174-0.154l-0.116-0.096l-0.269-0.23l-0.039-0.039l-0.229-0.211l-0.192-0.173    l-0.098-0.077c-0.672-0.596-1.346-1.211-1.998-1.846l-0.154-0.152l-0.02-0.02l-0.769-0.75l-0.249-0.27l-0.039-0.02l-0.403-0.402    c-8.497-8.708-15.396-19.973-20.433-34.196c-13.726-2.075-26.565-6.805-38.29-14.686c-11.322-7.612-21.606-18.165-30.698-32.101    c-12.264,16.877-24.835,33.023-45.132,30.428c-4.498,11.842-10.227,20.338-16.742,26.738c-5.536,5.42-11.611,9.322-17.936,12.455    l1.213,0.52l0.095,0.039l0.403,0.172l0.097,0.039l0.212,0.076l0.095,0.039l0.116,0.038l0.097,0.058h0.019l0.077,0.039l0.095,0.038    l0.116,0.038l0.096,0.039l0.058,0.02l0.039,0.019l0.114,0.038l0.097,0.039l0.097,0.039l0.077,0.037h0.019l0.116,0.039l0.095,0.039    l0.096,0.037l0.116,0.039l0,0l0.096,0.038l0.095,0.039l0.116,0.038l0.097,0.039l0.039,0.019l0.058,0.02l0.114,0.038l0.097,0.039    l0.097,0.038l0.058,0.02l0.058,0.019l0.095,0.02l0.097,0.039l0.116,0.038l0.077,0.038h0.019l0.211,0.077l0.096,0.038l0.211,0.059    l0.096,0.037l0.212,0.077h0.039l0.056,0.02l0.116,0.038l0.097,0.039l0.116,0.038l0.056,0.02h0.039l0.097,0.038l0.116,0.039    l0.172,0.058h0.02l0.154,0.058l0.174,0.038l0.114,0.038l0.058,0.02l0.174,0.059l0.191,0.057h0.02l0.154,0.039l0.174,0.057    l0.114,0.039l0.058,0.02l0.193,0.038l0.172,0.058l0.039,0.02l0.135,0.038l0.172,0.038l0.135,0.039l0.058,0.02l0.174,0.057    l0.172,0.039l0.039,0.02l0.154,0.02l0.172,0.057l0.135,0.039l0.21,0.058l0.193,0.038l0.039,0.02l0.135,0.039l0.172,0.037    l0.154,0.039h0.039l0.172,0.039l0.193,0.057h0.039l0.133,0.039l0.173,0.038l0.155,0.038h0.039l0.172,0.059l0.251,0.038    l0.114,0.038l0.174,0.039l0.172,0.038h0.02l0.174,0.038l0.193,0.039l0.056,0.02l0.116,0.019l0.193,0.038l0.152,0.039h0.02    l0.193,0.039l0.172,0.037h0.077l0.116,0.039l0.191,0.02l0.155,0.038h0.019l0.193,0.038l0.172,0.039h0.077l0.116,0.019l0.172,0.038    l0.174,0.039h0.019l0.191,0.039l0.174,0.019l0.077,0.02l0.116,0.019l0.172,0.039l0.193,0.02l0,0l0.191,0.038l0.174,0.02    l0.097,0.019l0.095,0.02l0.193,0.02l0.172,0.02l0,0l0.193,0.038l0.193,0.019l0.075,0.02l0.097,0.02l0.193,0.02l0.191,0.02    l0.039,0.019l0,0h0.039l0,0h0.039h0.02l0.019,0.019h0.02h0.019h0.02l0.02,0.02h0.019h0.02l0.019,0.02h0.018h0.02l0.019,0.02h0.02    l0.058,0.02h0.02h0.019l0.077,0.037h0.039v0.02l0.135,0.059h0.018l0.058,0.037l0,0l0.039,0.02l0,0l0.039,0.02l0,0l0.039,0.02    l0.058,0.038h0.019l0.02,0.02v0.019l0.039,0.02l0,0l0,0l0.058,0.039l0.039,0.019l0,0l0.037,0.038l0,0l0.019,0.02l0,0l0.039,0.02    l0,0l0.02,0.039h0.019l0.02,0.019l0,0l0.02,0.038h0.019l0.02,0.02l0,0l0.019,0.02l0.02,0.02l0.019,0.019l0,0l0.02,0.02    l0.019,0.019l0.02,0.02l0,0l0.019,0.039l0,0l0.02,0.02l0.019,0.018l0.02,0.02l0,0l0.037,0.059l0.02,0.02v0.019h0.019l0.02,0.038    l0,0l0.019,0.02v0.02l0.039,0.058l0.019,0.019l0,0v0.02l0.02,0.02v0.02h0.019v0.019l0.02,0.02v0.019l0.019,0.02v0.02l0.02,0.02    l0,0v0.019l0.019,0.02v0.02l0.02,0.019v0.02v0.02l0.019,0.02v0.019v0.02l0.02,0.019v0.02l0.019,0.02v0.02l0.02,0.038    c3.555,10.476,8.495,18.664,14.608,24.931c6.092,6.209,13.359,10.533,21.604,13.301l0.058,0.02l0,0l0.058,0.02l0,0l0.058,0.02    h0.02l0.02,0.02l0.019,0.019h0.039l0.02,0.02l0.037,0.019h0.02l0.019,0.02l0.039,0.02h0.02l0.039,0.02v0.019l0.039,0.02h0.019    l0.039,0.038l0,0l0.058,0.039l0,0l0.039,0.02l0.058,0.037l0,0l0.037,0.039l0,0l0.039,0.039l0,0l0.039,0.037h0.02l0.039,0.039l0,0    l0.039,0.038v0.02l0.039,0.02v0.019l0.039,0.02v0.02l0.039,0.038l0,0l0.039,0.038v0.02l0.039,0.02v0.02l0.039,0.038v0.02    l0.018,0.019l0.02,0.02l0.019,0.039h0.02l0.019,0.038v0.019l0.02,0.039l0.019,0.02l0.02,0.038l0,0l0.02,0.038l0.019,0.02    l0.02,0.039v0.019l0.039,0.038l0.019,0.059l0.02,0.057l0.019,0.039l0.039,0.058l0.02,0.038l0.039,0.077l0.019,0.038l0.018,0.059    l0.039,0.038l0.02,0.058l0.02,0.058l0.039,0.058l0.019,0.039l0.02,0.057l0.039,0.059l0.019,0.057l0.02,0.039l0.039,0.058    l0.019,0.058l0.02,0.058l0.039,0.038l0.019,0.059l0.037,0.057l0.019,0.059l0.02,0.057l0.039,0.039l0.02,0.057l0.039,0.059    l0.019,0.058l0.02,0.038l0.039,0.058l0.019,0.058l0.039,0.059l0.02,0.038l0.019,0.077l0.02,0.038l0.039,0.058l0.02,0.058    l0.037,0.058l0.02,0.039l0.039,0.076l0.019,0.039l0.02,0.057l0.019,0.059l0.039,0.057l0.02,0.039l0.039,0.077l0.019,0.038    l0.039,0.077l0.02,0.038l0.039,0.059l0.02,0.038l0.019,0.077l0.02,0.038l0.037,0.077l0.02,0.037l0.039,0.078l0.019,0.038    l0.039,0.077l0.02,0.019l0.039,0.077l0.019,0.039l0.039,0.076v0.039l0.039,0.076l0.019,0.039l0.039,0.076l0.02,0.02l0.039,0.096    l0.019,0.02l0.037,0.096l0.019,0.02l0.039,0.096l0.02,0.02l0.039,0.097v0.019l0.058,0.097v0.02l0.058,0.077v0.038l0.039,0.096    l0.02,0.02l0.039,0.097l0.019,0.019l0.039,0.077l0.018,0.038l0.039,0.096l0.02,0.02l0.039,0.077v0.038l0.058,0.097v0.02    l0.058,0.096v0.02l0.058,0.096v0.02l0.058,0.096v0.02l0.058,0.096v0.02l0.056,0.096v0.02l0.058,0.096v0.02l0.039,0.096l0.019,0.02    l0.039,0.115h0.02l0.039,0.115h0.019l0.039,0.115h0.02l0.039,0.115v0.02l0.056,0.096v0.02l0.058,0.115l0,0l0.058,0.115l0,0    l0.058,0.115l0,0l0.058,0.115l0,0l0.058,0.135l0.058,0.115l0.385,0.77v0.02l0.384,0.787l0,0l0.384,0.789v0.019l0.384,0.788v0.039    l0.384,0.787l0.019,0.039l0.384,0.788l0.02,0.038l0.384,0.789l0.039,0.057l0.384,0.789l0.019,0.057l0.404,0.789l0.019,0.076    l0.135,0.25l0.691,1.403l0.039,0.077l0.384,0.787l0.058,0.077l0.384,0.788l0.058,0.097l0.384,0.769l0.058,0.115l0.404,0.77    l0.058,0.115l0.133,0.25l0.328,0.634l0.384,0.749l0.077,0.135l0.384,0.75l0.076,0.135l0.405,0.75l0.076,0.153l0.384,0.73    l0.096,0.153l0.384,0.73l0.097,0.154l0.384,0.73l0.097,0.154l0.403,0.711l0.097,0.172l0.404,0.712l0.095,0.173l0.405,0.691    l0.095,0.193l0.403,0.672l0.116,0.192l0.384,0.673l0.116,0.192l0.403,0.673l0.116,0.192l0.403,0.653l0.518,0.826v0.02l0.135,0.211    l0.403,0.635l0.135,0.211l0.384,0.615l0.154,0.23l0.384,0.597l0.153,0.23l0.404,0.577l0.154,0.23l0.384,0.576l0.154,0.23    l0.404,0.559l0.152,0.249l0.384,0.538l0.174,0.25l0.384,0.52l0.193,0.25l0.384,0.519c0.749,0.98,1.499,1.941,2.286,2.864    l0.02,0.058c0.384,0.442,0.749,0.864,1.133,1.288l0.039,0.038l0.212,0.269l0.384,0.404l0.058,0.076    c0.384,0.404,0.749,0.789,1.133,1.174l0,0c1.172,1.21,2.383,2.287,3.615,3.267l0.172,0.135l0.442,0.327l0.193,0.154    c0.384,0.269,0.769,0.557,1.152,0.807l0.058,0.039l0.596,0.384l0.038,0.02c0.423,0.249,0.846,0.499,1.269,0.73l0.636,0.327    l0.058,0.018l0.595,0.289l0.058,0.02l0.614,0.27h0.039l0.635,0.25l0,0l5.036,0.037c7.938,0.077,15.819,0.154,23.586-1.152    c7.899-1.307,14.012-2.615,19.125-3.691c16.916-3.594,23.315-4.939,50.784,1.846l2.287,0.539    c6.613,1.498,15.436,2.363,24.45,2.671c8.304,0.288,16.762,0.097,23.777-0.461C408.035,353.227,403.845,348.998,399.787,343.924z" style="fill-rule:evenodd;clip-rule:evenodd;"/></g></g><g id="Layer_1"/></svg>